<svg xmlns="http://www.w3.org/2000/svg" xmlns:xlink="http://www.w3.org/1999/xlink" width="500" zoomAndPan="magnify" viewBox="0 0 375 374.999991" height="500" preserveAspectRatio="xMidYMid meet" version="1.0"><defs><clipPath id="11d79ec6d2"><path d="M 56.234375 51 L 318.734375 51 L 318.734375 324.742188 L 56.234375 324.742188 Z M 56.234375 51 " clip-rule="nonzero"/></clipPath><clipPath id="07c1b10a3c"><path d="M 77 65 L 318.734375 65 L 318.734375 324.742188 L 77 324.742188 Z M 77 65 " clip-rule="nonzero"/></clipPath></defs><g clip-path="url(#11d79ec6d2)"><path fill="#b76b37" d="M 318.734375 247.871094 C 318.734375 290.367188 260 324.65625 187.484375 324.65625 C 114.96875 324.65625 56.234375 290.203125 56.234375 247.871094 C 56.234375 227.035156 70.507812 208.003906 93.640625 194.21875 C 88.554688 187 85.765625 179.289062 85.765625 171.085938 C 85.765625 151.5625 101.84375 134.335938 126.617188 123.34375 C 124.320312 120.878906 122.1875 118.089844 120.382812 115.136719 C 105.289062 91.019531 108.40625 64.933594 110.867188 53.449219 C 111.359375 51.152344 114.3125 50.332031 115.953125 52.300781 C 120.710938 58.042969 130.226562 66.902344 144.828125 66.902344 C 166.320312 67.066406 187.484375 65.917969 187.484375 65.917969 C 223.90625 65.917969 253.4375 83.144531 253.4375 104.472656 C 253.4375 110.871094 250.8125 116.941406 246.054688 122.359375 C 272.140625 133.1875 289.203125 150.90625 289.203125 171.085938 C 289.203125 179.289062 286.414062 187 281.328125 194.21875 C 304.460938 208.003906 318.734375 227.035156 318.734375 247.871094 Z M 318.734375 247.871094 " fill-opacity="1" fill-rule="nonzero"/></g><g clip-path="url(#07c1b10a3c)"><path fill="#a55b28" d="M 318.734375 247.871094 C 318.734375 290.367188 260 324.65625 187.484375 324.65625 C 183.21875 324.65625 179.117188 324.492188 174.851562 324.328125 C 241.460938 320.554688 293.46875 287.738281 293.46875 247.871094 C 293.46875 227.035156 279.195312 208.003906 256.0625 194.21875 C 261.148438 187.164062 263.9375 179.289062 263.9375 171.085938 C 263.9375 150.90625 246.875 133.1875 220.625 122.359375 C 225.382812 117.105469 228.007812 111.035156 228.007812 104.472656 C 228.007812 85.441406 204.382812 69.527344 173.210938 66.410156 C 181.90625 66.246094 187.484375 65.917969 187.484375 65.917969 C 223.90625 65.917969 253.4375 83.144531 253.4375 104.472656 C 253.4375 110.871094 250.8125 116.941406 246.054688 122.359375 C 272.140625 133.1875 289.203125 150.90625 289.203125 171.085938 C 289.203125 179.289062 286.414062 187 281.328125 194.21875 C 304.460938 208.003906 318.734375 227.035156 318.734375 247.871094 Z M 118.90625 143.359375 C 107.914062 147.132812 100.203125 157.304688 100.039062 169.117188 C 100.039062 172.070312 104.46875 172.070312 104.46875 169.117188 C 104.632812 159.4375 110.867188 150.742188 120.054688 147.789062 C 122.679688 146.640625 121.53125 142.375 118.90625 143.359375 Z M 272.304688 260.175781 C 275.09375 260.175781 275.257812 255.746094 272.304688 255.746094 C 269.515625 255.746094 269.515625 260.175781 272.304688 260.175781 Z M 229.8125 298.078125 C 229.976562 299.226562 231.125 300.210938 232.273438 300.046875 C 245.070312 297.585938 256.71875 290.367188 264.757812 280.191406 C 267.054688 277.238281 269.023438 274.121094 270.664062 270.675781 C 271.976562 268.050781 267.875 266.246094 266.5625 268.871094 C 261.3125 279.535156 252.289062 288.066406 241.296875 292.664062 C 238.179688 293.976562 235.0625 294.960938 231.78125 295.617188 C 230.632812 295.78125 229.648438 296.765625 229.8125 298.078125 Z M 232.273438 223.589844 C 228.828125 223.589844 228.828125 228.839844 232.273438 228.839844 C 235.554688 228.839844 235.554688 223.589844 232.273438 223.589844 Z M 127.929688 221.457031 C 124.484375 221.457031 124.484375 226.707031 127.929688 226.707031 C 131.210938 226.707031 131.210938 221.457031 127.929688 221.457031 Z M 263.9375 225.230469 C 260.492188 225.230469 260.492188 230.480469 263.9375 230.480469 C 267.382812 230.480469 267.382812 225.230469 263.9375 225.230469 Z M 111.523438 237.863281 C 108.078125 237.863281 108.078125 243.113281 111.523438 243.113281 C 114.804688 243.113281 114.804688 237.863281 111.523438 237.863281 Z M 96.101562 212.105469 C 92.65625 212.105469 92.65625 217.355469 96.101562 217.355469 C 99.546875 217.355469 99.546875 212.105469 96.101562 212.105469 Z M 242.773438 249.675781 C 239.328125 249.675781 239.328125 254.925781 242.773438 254.925781 C 246.21875 254.925781 246.21875 249.675781 242.773438 249.675781 Z M 80.023438 248.855469 C 76.578125 248.855469 76.578125 254.105469 80.023438 254.105469 C 83.46875 254.105469 83.46875 248.855469 80.023438 248.855469 Z M 80.023438 248.855469 " fill-opacity="1" fill-rule="nonzero"/></g><path fill="#353535" d="M 224.726562 211.449219 C 224.726562 218.996094 218.492188 225.230469 210.945312 225.230469 C 203.398438 225.230469 197.164062 218.996094 197.164062 211.449219 C 197.164062 203.898438 203.398438 197.664062 210.945312 197.664062 C 218.492188 197.664062 224.726562 203.898438 224.726562 211.449219 Z M 137.28125 197.664062 C 129.734375 197.664062 123.5 203.898438 123.5 211.449219 C 123.5 218.996094 129.734375 225.230469 137.28125 225.230469 C 144.828125 225.230469 151.0625 218.996094 151.0625 211.449219 C 151.0625 203.898438 144.828125 197.664062 137.28125 197.664062 Z M 224.890625 189.296875 C 217.179688 179.78125 203.890625 182.242188 203.234375 182.40625 C 202.25 182.570312 201.59375 183.554688 201.757812 184.539062 C 201.921875 185.523438 202.90625 186.179688 203.890625 186.015625 C 204.054688 186.015625 215.703125 183.882812 221.9375 191.59375 C 222.265625 192.085938 222.921875 192.25 223.414062 192.25 C 223.90625 192.25 224.234375 192.085938 224.5625 191.757812 C 225.382812 191.429688 225.546875 190.117188 224.890625 189.296875 Z M 124.648438 192.414062 C 125.140625 192.414062 125.796875 192.25 126.125 191.757812 C 132.359375 184.046875 144.007812 186.179688 144.171875 186.179688 C 145.15625 186.34375 146.140625 185.6875 146.304688 184.703125 C 146.46875 183.71875 145.8125 182.734375 144.828125 182.570312 C 144.335938 182.40625 130.882812 179.945312 123.171875 189.460938 C 122.515625 190.28125 122.679688 191.429688 123.5 192.085938 C 123.828125 192.25 124.320312 192.414062 124.648438 192.414062 Z M 174.03125 241.308594 C 161.070312 241.308594 150.570312 250.988281 150.570312 262.964844 C 150.570312 274.941406 161.070312 271.824219 174.03125 271.824219 C 186.992188 271.824219 197.492188 274.941406 197.492188 262.964844 C 197.492188 250.988281 186.992188 241.308594 174.03125 241.308594 Z M 174.03125 241.308594 " fill-opacity="1" fill-rule="nonzero"/><path fill="#ffffff" d="M 139.742188 207.675781 C 139.742188 210.957031 137.117188 213.582031 133.835938 213.582031 C 130.554688 213.582031 127.929688 210.957031 127.929688 207.675781 C 127.929688 204.390625 130.554688 201.765625 133.835938 201.765625 C 137.117188 201.765625 139.742188 204.390625 139.742188 207.675781 Z M 140.5625 213.089844 C 139.25 213.089844 138.101562 214.238281 138.101562 215.550781 C 138.101562 216.863281 139.25 218.011719 140.5625 218.011719 C 141.875 218.011719 143.023438 216.863281 143.023438 215.550781 C 143.023438 214.074219 141.875 213.089844 140.5625 213.089844 Z M 207.5 201.765625 C 204.21875 201.765625 201.59375 204.390625 201.59375 207.675781 C 201.59375 210.957031 204.21875 213.582031 207.5 213.582031 C 210.78125 213.582031 213.40625 210.957031 213.40625 207.675781 C 213.40625 204.390625 210.78125 201.765625 207.5 201.765625 Z M 214.226562 213.089844 C 212.914062 213.089844 211.765625 214.238281 211.765625 215.550781 C 211.765625 216.863281 212.914062 218.011719 214.226562 218.011719 C 215.539062 218.011719 216.6875 216.863281 216.6875 215.550781 C 216.6875 214.074219 215.539062 213.089844 214.226562 213.089844 Z M 214.226562 213.089844 " fill-opacity="1" fill-rule="nonzero"/></svg>