<svg xmlns="http://www.w3.org/2000/svg" xmlns:xlink="http://www.w3.org/1999/xlink" width="500" zoomAndPan="magnify" viewBox="0 0 375 374.999991" height="500" preserveAspectRatio="xMidYMid meet" version="1.0"><defs><clipPath id="ae4dee8159"><path d="M 56.25 51 L 318.75 51 L 318.75 324.761719 L 56.25 324.761719 Z M 56.25 51 " clip-rule="nonzero"/></clipPath><clipPath id="6397339631"><path d="M 77 65 L 318.75 65 L 318.75 324.761719 L 77 324.761719 Z M 77 65 " clip-rule="nonzero"/></clipPath></defs><g clip-path="url(#ae4dee8159)"><path fill="#b76b37" d="M 318.75 247.890625 C 318.75 290.386719 260.015625 324.679688 187.5 324.679688 C 114.984375 324.679688 56.25 290.222656 56.25 247.890625 C 56.25 227.054688 70.523438 208.019531 93.65625 194.238281 C 88.570312 187.019531 85.78125 179.308594 85.78125 171.105469 C 85.78125 151.578125 101.859375 134.351562 126.632812 123.359375 C 124.335938 120.894531 122.203125 118.105469 120.398438 115.152344 C 105.304688 91.035156 108.421875 64.945312 110.882812 53.460938 C 111.375 51.164062 114.328125 50.34375 115.96875 52.3125 C 120.726562 58.054688 130.242188 66.914062 144.84375 66.914062 C 166.335938 67.078125 187.5 65.929688 187.5 65.929688 C 223.921875 65.929688 253.453125 83.160156 253.453125 104.488281 C 253.453125 110.886719 250.828125 116.957031 246.070312 122.371094 C 272.15625 133.203125 289.21875 150.921875 289.21875 171.105469 C 289.21875 179.308594 286.429688 187.019531 281.34375 194.238281 C 304.476562 208.019531 318.75 227.054688 318.75 247.890625 Z M 318.75 247.890625 " fill-opacity="1" fill-rule="nonzero"/></g><g clip-path="url(#6397339631)"><path fill="#a55b28" d="M 318.75 247.890625 C 318.75 290.386719 260.015625 324.679688 187.5 324.679688 C 183.234375 324.679688 179.132812 324.515625 174.867188 324.351562 C 241.476562 320.578125 293.484375 287.761719 293.484375 247.890625 C 293.484375 227.054688 279.210938 208.019531 256.078125 194.238281 C 261.164062 187.183594 263.953125 179.308594 263.953125 171.105469 C 263.953125 150.921875 246.890625 133.203125 220.640625 122.371094 C 225.398438 117.121094 228.023438 111.050781 228.023438 104.488281 C 228.023438 85.457031 204.398438 69.539062 173.226562 66.421875 C 181.921875 66.257812 187.5 65.929688 187.5 65.929688 C 223.921875 65.929688 253.453125 83.160156 253.453125 104.488281 C 253.453125 110.886719 250.828125 116.957031 246.070312 122.371094 C 272.15625 133.203125 289.21875 150.921875 289.21875 171.105469 C 289.21875 179.308594 286.429688 187.019531 281.34375 194.238281 C 304.476562 208.019531 318.75 227.054688 318.75 247.890625 Z M 118.921875 143.375 C 107.929688 147.148438 100.21875 157.320312 100.054688 169.136719 C 100.054688 172.089844 104.484375 172.089844 104.484375 169.136719 C 104.648438 159.453125 110.882812 150.757812 120.070312 147.804688 C 122.695312 146.65625 121.546875 142.390625 118.921875 143.375 Z M 272.320312 260.199219 C 275.109375 260.199219 275.273438 255.765625 272.320312 255.765625 C 269.53125 255.765625 269.53125 260.199219 272.320312 260.199219 Z M 229.828125 298.097656 C 229.992188 299.246094 231.140625 300.230469 232.289062 300.066406 C 245.085938 297.605469 256.734375 290.386719 264.773438 280.214844 C 267.070312 277.261719 269.039062 274.144531 270.679688 270.699219 C 271.992188 268.074219 267.890625 266.269531 266.578125 268.894531 C 261.328125 279.558594 252.304688 288.089844 241.3125 292.683594 C 238.195312 293.996094 235.078125 294.980469 231.796875 295.636719 C 230.648438 295.800781 229.664062 296.785156 229.828125 298.097656 Z M 232.289062 223.609375 C 228.84375 223.609375 228.84375 228.859375 232.289062 228.859375 C 235.570312 228.859375 235.570312 223.609375 232.289062 223.609375 Z M 127.945312 221.476562 C 124.5 221.476562 124.5 226.726562 127.945312 226.726562 C 131.226562 226.726562 131.226562 221.476562 127.945312 221.476562 Z M 263.953125 225.25 C 260.507812 225.25 260.507812 230.5 263.953125 230.5 C 267.398438 230.5 267.398438 225.25 263.953125 225.25 Z M 111.539062 237.882812 C 108.09375 237.882812 108.09375 243.132812 111.539062 243.132812 C 114.820312 243.132812 114.820312 237.882812 111.539062 237.882812 Z M 96.117188 212.121094 C 92.671875 212.121094 92.671875 217.375 96.117188 217.375 C 99.5625 217.375 99.5625 212.121094 96.117188 212.121094 Z M 242.789062 249.695312 C 239.34375 249.695312 239.34375 254.945312 242.789062 254.945312 C 246.234375 254.945312 246.234375 249.695312 242.789062 249.695312 Z M 80.039062 248.875 C 76.59375 248.875 76.59375 254.125 80.039062 254.125 C 83.484375 254.125 83.484375 248.875 80.039062 248.875 Z M 80.039062 248.875 " fill-opacity="1" fill-rule="nonzero"/></g><path fill="#353535" d="M 175.523438 281.855469 C 168.140625 281.855469 161.085938 279.558594 155.179688 275.457031 C 149.109375 271.191406 144.351562 264.792969 142.054688 257.734375 C 140.90625 254.125 140.25 250.515625 140.25 246.742188 C 140.25 245.59375 141.234375 244.609375 142.382812 244.609375 C 143.53125 244.609375 144.515625 245.59375 144.515625 246.742188 C 144.515625 250.023438 145.007812 253.304688 146.15625 256.585938 C 148.289062 262.824219 152.390625 268.402344 157.804688 272.175781 C 163.054688 275.949219 169.289062 277.917969 175.851562 277.917969 C 184.546875 277.917969 192.914062 274.308594 198.820312 267.910156 C 204.070312 262.167969 207.023438 254.617188 207.023438 246.90625 C 207.023438 245.757812 208.007812 244.773438 209.15625 244.773438 C 210.304688 244.773438 211.289062 245.757812 211.289062 246.90625 C 211.289062 255.765625 208.007812 264.300781 201.9375 270.699219 C 194.71875 277.753906 185.367188 281.855469 175.523438 281.855469 Z M 191.4375 198.503906 L 96.28125 198.503906 C 95.296875 198.503906 94.3125 199.324219 94.476562 200.472656 C 94.640625 203.917969 95.296875 207.199219 96.28125 210.316406 C 96.773438 211.792969 97.429688 213.269531 98.085938 214.75 C 100.875 220.492188 104.976562 225.414062 110.226562 229.023438 C 116.296875 233.289062 123.679688 235.914062 131.71875 235.914062 C 142.546875 235.914062 152.390625 231.320312 159.117188 223.9375 C 161.578125 221.148438 163.710938 218.195312 165.351562 214.746094 C 166.335938 212.777344 167.15625 210.644531 167.648438 208.347656 C 167.8125 207.527344 168.632812 207.035156 169.453125 207.035156 L 181.757812 207.035156 C 182.578125 207.035156 183.234375 207.527344 183.5625 208.347656 C 183.726562 209.003906 183.890625 209.660156 184.21875 210.316406 C 184.710938 211.792969 185.367188 213.269531 186.023438 214.746094 C 188.8125 220.492188 192.914062 225.414062 198.164062 229.023438 C 204.234375 233.289062 211.617188 235.914062 219.65625 235.914062 C 230.484375 235.914062 240.328125 231.320312 247.054688 223.9375 C 249.515625 221.148438 251.648438 218.195312 253.289062 214.746094 C 255.421875 210.480469 256.570312 205.722656 256.898438 200.636719 C 256.898438 199.652344 256.078125 198.667969 255.09375 198.667969 L 191.4375 198.667969 Z M 191.4375 198.503906 " fill-opacity="1" fill-rule="nonzero"/></svg>