<svg xmlns="http://www.w3.org/2000/svg" xmlns:xlink="http://www.w3.org/1999/xlink" width="500" zoomAndPan="magnify" viewBox="0 0 375 374.999991" height="500" preserveAspectRatio="xMidYMid meet" version="1.0"><defs><clipPath id="857c55b725"><path d="M 56.25 51 L 318.75 51 L 318.75 324.761719 L 56.25 324.761719 Z M 56.25 51 " clip-rule="nonzero"/></clipPath><clipPath id="6ba89a7ae3"><path d="M 77 65 L 318.75 65 L 318.75 324.761719 L 77 324.761719 Z M 77 65 " clip-rule="nonzero"/></clipPath></defs><g clip-path="url(#857c55b725)"><path fill="#b76b37" d="M 318.75 247.890625 C 318.75 290.386719 260.015625 324.679688 187.5 324.679688 C 114.984375 324.679688 56.25 290.222656 56.25 247.890625 C 56.25 227.054688 70.523438 208.019531 93.65625 194.238281 C 88.570312 187.019531 85.78125 179.308594 85.78125 171.105469 C 85.78125 151.578125 101.859375 134.351562 126.632812 123.359375 C 124.335938 120.894531 122.203125 118.105469 120.398438 115.152344 C 105.304688 91.035156 108.421875 64.945312 110.882812 53.460938 C 111.375 51.164062 114.328125 50.34375 115.96875 52.3125 C 120.726562 58.054688 130.242188 66.914062 144.84375 66.914062 C 166.335938 67.078125 187.5 65.929688 187.5 65.929688 C 223.921875 65.929688 253.453125 83.160156 253.453125 104.488281 C 253.453125 110.886719 250.828125 116.957031 246.070312 122.371094 C 272.15625 133.203125 289.21875 150.921875 289.21875 171.105469 C 289.21875 179.308594 286.429688 187.019531 281.34375 194.238281 C 304.476562 208.019531 318.75 227.054688 318.75 247.890625 Z M 318.75 247.890625 " fill-opacity="1" fill-rule="nonzero"/></g><g clip-path="url(#6ba89a7ae3)"><path fill="#a55b28" d="M 318.75 247.890625 C 318.75 290.386719 260.015625 324.679688 187.5 324.679688 C 183.234375 324.679688 179.132812 324.515625 174.867188 324.351562 C 241.476562 320.578125 293.484375 287.761719 293.484375 247.890625 C 293.484375 227.054688 279.210938 208.019531 256.078125 194.238281 C 261.164062 187.183594 263.953125 179.308594 263.953125 171.105469 C 263.953125 150.921875 246.890625 133.203125 220.640625 122.375 C 225.398438 117.121094 228.023438 111.050781 228.023438 104.488281 C 228.023438 85.457031 204.398438 69.539062 173.226562 66.421875 C 181.921875 66.257812 187.5 65.929688 187.5 65.929688 C 223.921875 65.929688 253.453125 83.160156 253.453125 104.488281 C 253.453125 110.886719 250.828125 116.957031 246.070312 122.371094 C 272.15625 133.203125 289.21875 150.921875 289.21875 171.105469 C 289.21875 179.308594 286.429688 187.019531 281.34375 194.238281 C 304.476562 208.019531 318.75 227.054688 318.75 247.890625 Z M 118.921875 143.375 C 107.929688 147.148438 100.21875 157.320312 100.054688 169.136719 C 100.054688 172.089844 104.484375 172.089844 104.484375 169.136719 C 104.648438 159.453125 110.882812 150.757812 120.070312 147.804688 C 122.695312 146.65625 121.546875 142.390625 118.921875 143.375 Z M 272.320312 260.199219 C 275.109375 260.199219 275.273438 255.765625 272.320312 255.765625 C 269.53125 255.765625 269.53125 260.199219 272.320312 260.199219 Z M 229.828125 298.097656 C 229.992188 299.246094 231.140625 300.230469 232.289062 300.066406 C 245.085938 297.605469 256.734375 290.386719 264.773438 280.214844 C 267.070312 277.261719 269.039062 274.144531 270.679688 270.699219 C 271.992188 268.074219 267.890625 266.269531 266.578125 268.894531 C 261.328125 279.558594 252.304688 288.089844 241.3125 292.683594 C 238.195312 293.996094 235.078125 294.980469 231.796875 295.636719 C 230.648438 295.800781 229.664062 296.785156 229.828125 298.097656 Z M 232.289062 223.609375 C 228.84375 223.609375 228.84375 228.859375 232.289062 228.859375 C 235.570312 228.859375 235.570312 223.609375 232.289062 223.609375 Z M 127.945312 221.476562 C 124.5 221.476562 124.5 226.726562 127.945312 226.726562 C 131.226562 226.726562 131.226562 221.476562 127.945312 221.476562 Z M 263.953125 225.25 C 260.507812 225.25 260.507812 230.5 263.953125 230.5 C 267.398438 230.5 267.398438 225.25 263.953125 225.25 Z M 111.539062 237.882812 C 108.09375 237.882812 108.09375 243.132812 111.539062 243.132812 C 114.820312 243.132812 114.820312 237.882812 111.539062 237.882812 Z M 96.117188 212.121094 C 92.671875 212.121094 92.671875 217.375 96.117188 217.375 C 99.5625 217.375 99.5625 212.121094 96.117188 212.121094 Z M 242.789062 249.695312 C 239.34375 249.695312 239.34375 254.945312 242.789062 254.945312 C 246.234375 254.945312 246.234375 249.695312 242.789062 249.695312 Z M 80.039062 248.875 C 76.59375 248.875 76.59375 254.125 80.039062 254.125 C 83.484375 254.125 83.484375 248.875 80.039062 248.875 Z M 80.039062 248.875 " fill-opacity="1" fill-rule="nonzero"/></g><path fill="#353535" d="M 146.8125 223.773438 C 146.8125 230.5 141.398438 235.914062 134.671875 235.914062 C 127.945312 235.914062 122.53125 230.5 122.53125 223.773438 C 122.53125 217.046875 127.945312 211.628906 134.671875 211.628906 C 141.398438 211.628906 146.8125 217.046875 146.8125 223.773438 Z M 217.195312 211.628906 C 210.46875 211.628906 205.054688 217.046875 205.054688 223.773438 C 205.054688 230.5 210.46875 235.914062 217.195312 235.914062 C 223.921875 235.914062 229.335938 230.5 229.335938 223.773438 C 229.335938 217.046875 223.921875 211.628906 217.195312 211.628906 Z M 202.757812 258.882812 L 149.109375 258.882812 C 147.960938 258.882812 146.976562 259.867188 146.976562 261.019531 C 146.976562 262.167969 147.960938 263.152344 149.109375 263.152344 L 202.757812 263.152344 C 203.90625 263.152344 204.890625 262.167969 204.890625 261.019531 C 204.726562 259.867188 203.90625 258.882812 202.757812 258.882812 Z M 202.757812 258.882812 " fill-opacity="1" fill-rule="nonzero"/><path fill="#ffffff" d="M 136.804688 220.328125 C 136.804688 223.117188 134.507812 225.578125 131.554688 225.578125 C 128.601562 225.578125 126.304688 223.28125 126.304688 220.328125 C 126.304688 217.539062 128.601562 215.078125 131.554688 215.078125 C 134.507812 215.078125 136.804688 217.539062 136.804688 220.328125 Z M 137.625 225.085938 C 136.476562 225.085938 135.492188 226.070312 135.492188 227.21875 C 135.492188 228.367188 136.476562 229.351562 137.625 229.351562 C 138.773438 229.351562 139.757812 228.367188 139.757812 227.21875 C 139.757812 226.070312 138.773438 225.085938 137.625 225.085938 Z M 214.242188 215.242188 C 211.453125 215.242188 208.992188 217.539062 208.992188 220.492188 C 208.992188 223.28125 211.289062 225.742188 214.242188 225.742188 C 217.195312 225.742188 219.492188 223.445312 219.492188 220.492188 C 219.492188 217.539062 217.195312 215.242188 214.242188 215.242188 Z M 220.148438 225.085938 C 219 225.085938 218.015625 226.070312 218.015625 227.21875 C 218.015625 228.367188 219 229.351562 220.148438 229.351562 C 221.296875 229.351562 222.28125 228.367188 222.28125 227.21875 C 222.28125 226.070312 221.296875 225.085938 220.148438 225.085938 Z M 220.148438 225.085938 " fill-opacity="1" fill-rule="nonzero"/></svg>