<svg xmlns="http://www.w3.org/2000/svg" xmlns:xlink="http://www.w3.org/1999/xlink" width="500" zoomAndPan="magnify" viewBox="0 0 375 374.999991" height="500" preserveAspectRatio="xMidYMid meet" version="1.0"><defs><clipPath id="7dd9ace2d4"><path d="M 56.25 51 L 318.75 51 L 318.75 324.761719 L 56.25 324.761719 Z M 56.25 51 " clip-rule="nonzero"/></clipPath><clipPath id="a024d66e9b"><path d="M 77 65 L 318.75 65 L 318.75 324.761719 L 77 324.761719 Z M 77 65 " clip-rule="nonzero"/></clipPath></defs><g clip-path="url(#7dd9ace2d4)"><path fill="#b76b37" d="M 318.75 247.890625 C 318.75 290.386719 260.015625 324.679688 187.5 324.679688 C 114.984375 324.679688 56.25 290.222656 56.25 247.890625 C 56.25 227.054688 70.523438 208.019531 93.65625 194.238281 C 88.570312 187.019531 85.78125 179.308594 85.78125 171.105469 C 85.78125 151.578125 101.859375 134.351562 126.632812 123.359375 C 124.335938 120.894531 122.203125 118.105469 120.398438 115.152344 C 105.304688 91.035156 108.421875 64.945312 110.882812 53.460938 C 111.375 51.164062 114.328125 50.34375 115.96875 52.3125 C 120.726562 58.054688 130.242188 66.914062 144.84375 66.914062 C 166.335938 67.078125 187.5 65.929688 187.5 65.929688 C 223.921875 65.929688 253.453125 83.160156 253.453125 104.488281 C 253.453125 110.886719 250.828125 116.957031 246.070312 122.375 C 272.15625 133.203125 289.21875 150.921875 289.21875 171.105469 C 289.21875 179.308594 286.429688 187.019531 281.34375 194.238281 C 304.476562 208.019531 318.75 227.054688 318.75 247.890625 Z M 318.75 247.890625 " fill-opacity="1" fill-rule="nonzero"/></g><g clip-path="url(#a024d66e9b)"><path fill="#a55b28" d="M 318.75 247.890625 C 318.75 290.386719 260.015625 324.679688 187.5 324.679688 C 183.234375 324.679688 179.132812 324.515625 174.867188 324.351562 C 241.476562 320.578125 293.484375 287.761719 293.484375 247.890625 C 293.484375 227.054688 279.210938 208.019531 256.078125 194.238281 C 261.164062 187.183594 263.953125 179.308594 263.953125 171.105469 C 263.953125 150.921875 246.890625 133.203125 220.640625 122.375 C 225.398438 117.121094 228.023438 111.050781 228.023438 104.488281 C 228.023438 85.457031 204.398438 69.539062 173.226562 66.421875 C 181.921875 66.257812 187.5 65.929688 187.5 65.929688 C 223.921875 65.929688 253.453125 83.160156 253.453125 104.488281 C 253.453125 110.886719 250.828125 116.957031 246.070312 122.375 C 272.15625 133.203125 289.21875 150.921875 289.21875 171.105469 C 289.21875 179.308594 286.429688 187.019531 281.34375 194.238281 C 304.476562 208.019531 318.75 227.054688 318.75 247.890625 Z M 118.921875 143.375 C 107.929688 147.148438 100.21875 157.320312 100.054688 169.136719 C 100.054688 172.089844 104.484375 172.089844 104.484375 169.136719 C 104.648438 159.453125 110.882812 150.757812 120.070312 147.804688 C 122.695312 146.65625 121.546875 142.390625 118.921875 143.375 Z M 272.320312 260.199219 C 275.109375 260.199219 275.273438 255.765625 272.320312 255.765625 C 269.53125 255.765625 269.53125 260.199219 272.320312 260.199219 Z M 229.828125 298.097656 C 229.992188 299.246094 231.140625 300.230469 232.289062 300.066406 C 245.085938 297.605469 256.734375 290.386719 264.773438 280.214844 C 267.070312 277.261719 269.039062 274.144531 270.679688 270.699219 C 271.992188 268.074219 267.890625 266.269531 266.578125 268.894531 C 261.328125 279.558594 252.304688 288.089844 241.3125 292.683594 C 238.195312 293.996094 235.078125 294.980469 231.796875 295.636719 C 230.648438 295.800781 229.664062 296.785156 229.828125 298.097656 Z M 232.289062 223.609375 C 228.84375 223.609375 228.84375 228.859375 232.289062 228.859375 C 235.570312 228.859375 235.570312 223.609375 232.289062 223.609375 Z M 127.945312 221.476562 C 124.5 221.476562 124.5 226.726562 127.945312 226.726562 C 131.226562 226.726562 131.226562 221.476562 127.945312 221.476562 Z M 263.953125 225.25 C 260.507812 225.25 260.507812 230.5 263.953125 230.5 C 267.398438 230.5 267.398438 225.25 263.953125 225.25 Z M 111.539062 237.882812 C 108.09375 237.882812 108.09375 243.132812 111.539062 243.132812 C 114.820312 243.132812 114.820312 237.882812 111.539062 237.882812 Z M 96.117188 212.121094 C 92.671875 212.121094 92.671875 217.375 96.117188 217.375 C 99.5625 217.375 99.5625 212.121094 96.117188 212.121094 Z M 242.789062 249.695312 C 239.34375 249.695312 239.34375 254.945312 242.789062 254.945312 C 246.234375 254.945312 246.234375 249.695312 242.789062 249.695312 Z M 80.039062 248.875 C 76.59375 248.875 76.59375 254.125 80.039062 254.125 C 83.484375 254.125 83.484375 248.875 80.039062 248.875 Z M 80.039062 248.875 " fill-opacity="1" fill-rule="nonzero"/></g><path fill="#353535" d="M 218.179688 221.148438 C 218.179688 222.132812 217.359375 222.953125 216.375 222.953125 C 215.390625 222.953125 214.570312 222.132812 214.570312 221.148438 C 214.570312 216.0625 210.46875 211.957031 205.382812 211.957031 C 200.296875 211.957031 196.195312 216.0625 196.195312 221.148438 C 196.195312 222.132812 195.375 222.953125 194.390625 222.953125 C 193.40625 222.953125 192.585938 222.132812 192.585938 221.148438 C 192.585938 213.929688 198.492188 208.183594 205.546875 208.183594 C 212.4375 208.019531 218.179688 213.929688 218.179688 221.148438 Z M 143.695312 208.019531 C 136.476562 208.019531 130.734375 213.929688 130.734375 220.984375 C 130.734375 221.96875 131.554688 222.789062 132.539062 222.789062 C 133.523438 222.789062 134.34375 221.96875 134.34375 220.984375 C 134.34375 215.898438 138.445312 211.792969 143.53125 211.792969 C 148.617188 211.792969 152.71875 215.898438 152.71875 220.984375 C 152.71875 221.96875 153.539062 222.789062 154.523438 222.789062 C 155.507812 222.789062 156.328125 221.96875 156.328125 220.984375 C 156.65625 213.929688 150.75 208.019531 143.695312 208.019531 Z M 225.234375 198.996094 C 217.523438 189.480469 204.234375 191.941406 203.578125 192.105469 C 202.59375 192.269531 201.9375 193.253906 202.101562 194.238281 C 202.265625 195.222656 203.25 195.878906 204.234375 195.714844 C 204.398438 195.714844 216.046875 193.582031 222.28125 201.292969 C 222.609375 201.785156 223.265625 201.949219 223.757812 201.949219 C 224.25 201.949219 224.578125 201.785156 224.90625 201.457031 C 225.890625 200.964844 225.890625 199.816406 225.234375 198.996094 Z M 144.515625 195.878906 C 145.5 196.042969 146.484375 195.386719 146.648438 194.402344 C 146.8125 193.417969 146.15625 192.433594 145.171875 192.269531 C 144.679688 192.105469 131.226562 189.644531 123.515625 199.160156 C 122.859375 199.980469 123.023438 201.128906 123.84375 201.785156 C 124.171875 202.113281 124.664062 202.277344 124.992188 202.277344 C 125.484375 202.277344 126.140625 202.113281 126.46875 201.621094 C 132.703125 193.746094 144.351562 195.714844 144.515625 195.878906 Z M 174.375 250.84375 C 169.289062 250.84375 165.023438 255.929688 165.023438 262.167969 C 165.023438 268.402344 169.125 273.488281 174.375 273.488281 C 179.460938 273.488281 183.726562 268.402344 183.726562 262.167969 C 183.726562 255.929688 179.625 250.84375 174.375 250.84375 Z M 174.375 250.84375 " fill-opacity="1" fill-rule="nonzero"/></svg>