<svg xmlns="http://www.w3.org/2000/svg" xmlns:xlink="http://www.w3.org/1999/xlink" width="500" zoomAndPan="magnify" viewBox="0 0 375 374.999991" height="500" preserveAspectRatio="xMidYMid meet" version="1.0"><defs><clipPath id="5fadba5356"><path d="M 56.25 51 L 318.75 51 L 318.75 324.761719 L 56.25 324.761719 Z M 56.25 51 " clip-rule="nonzero"/></clipPath><clipPath id="941cbc60d7"><path d="M 77 65 L 318.75 65 L 318.75 324.761719 L 77 324.761719 Z M 77 65 " clip-rule="nonzero"/></clipPath></defs><g clip-path="url(#5fadba5356)"><path fill="#b76b37" d="M 318.75 247.890625 C 318.75 290.386719 260.015625 324.679688 187.5 324.679688 C 114.984375 324.679688 56.25 290.222656 56.25 247.890625 C 56.25 227.054688 70.523438 208.019531 93.65625 194.238281 C 88.570312 187.019531 85.78125 179.308594 85.78125 171.105469 C 85.78125 151.578125 101.859375 134.351562 126.632812 123.359375 C 124.335938 120.894531 122.203125 118.105469 120.398438 115.152344 C 105.304688 91.035156 108.421875 64.945312 110.882812 53.460938 C 111.375 51.164062 114.328125 50.34375 115.96875 52.3125 C 120.726562 58.054688 130.242188 66.914062 144.84375 66.914062 C 166.335938 67.078125 187.5 65.929688 187.5 65.929688 C 223.921875 65.929688 253.453125 83.160156 253.453125 104.488281 C 253.453125 110.886719 250.828125 116.957031 246.070312 122.371094 C 272.15625 133.203125 289.21875 150.921875 289.21875 171.105469 C 289.21875 179.308594 286.429688 187.019531 281.34375 194.238281 C 304.476562 208.019531 318.75 227.054688 318.75 247.890625 Z M 318.75 247.890625 " fill-opacity="1" fill-rule="nonzero"/></g><g clip-path="url(#941cbc60d7)"><path fill="#a55b28" d="M 318.75 247.890625 C 318.75 290.386719 260.015625 324.679688 187.5 324.679688 C 183.234375 324.679688 179.132812 324.515625 174.867188 324.351562 C 241.476562 320.578125 293.484375 287.761719 293.484375 247.890625 C 293.484375 227.054688 279.210938 208.019531 256.078125 194.238281 C 261.164062 187.183594 263.953125 179.308594 263.953125 171.105469 C 263.953125 150.921875 246.890625 133.203125 220.640625 122.371094 C 225.398438 117.121094 228.023438 111.050781 228.023438 104.488281 C 228.023438 85.457031 204.398438 69.539062 173.226562 66.421875 C 181.921875 66.257812 187.5 65.929688 187.5 65.929688 C 223.921875 65.929688 253.453125 83.160156 253.453125 104.488281 C 253.453125 110.886719 250.828125 116.957031 246.070312 122.371094 C 272.15625 133.203125 289.21875 150.921875 289.21875 171.105469 C 289.21875 179.308594 286.429688 187.019531 281.34375 194.238281 C 304.476562 208.019531 318.75 227.054688 318.75 247.890625 Z M 118.921875 143.375 C 107.929688 147.148438 100.21875 157.320312 100.054688 169.136719 C 100.054688 172.089844 104.484375 172.089844 104.484375 169.136719 C 104.648438 159.453125 110.882812 150.757812 120.070312 147.804688 C 122.695312 146.65625 121.546875 142.390625 118.921875 143.375 Z M 272.320312 260.195312 C 275.109375 260.195312 275.273438 255.765625 272.320312 255.765625 C 269.53125 255.765625 269.53125 260.195312 272.320312 260.195312 Z M 229.828125 298.097656 C 229.992188 299.246094 231.140625 300.230469 232.289062 300.066406 C 245.085938 297.605469 256.734375 290.386719 264.773438 280.214844 C 267.070312 277.261719 269.039062 274.144531 270.679688 270.699219 C 271.992188 268.074219 267.890625 266.269531 266.578125 268.894531 C 261.328125 279.558594 252.304688 288.089844 241.3125 292.683594 C 238.195312 293.996094 235.078125 294.980469 231.796875 295.636719 C 230.648438 295.800781 229.664062 296.785156 229.828125 298.097656 Z M 232.289062 223.609375 C 228.84375 223.609375 228.84375 228.859375 232.289062 228.859375 C 235.570312 228.859375 235.570312 223.609375 232.289062 223.609375 Z M 127.945312 221.476562 C 124.5 221.476562 124.5 226.726562 127.945312 226.726562 C 131.226562 226.726562 131.226562 221.476562 127.945312 221.476562 Z M 263.953125 225.25 C 260.507812 225.25 260.507812 230.5 263.953125 230.5 C 267.398438 230.5 267.398438 225.25 263.953125 225.25 Z M 111.539062 237.882812 C 108.09375 237.882812 108.09375 243.132812 111.539062 243.132812 C 114.820312 243.132812 114.820312 237.882812 111.539062 237.882812 Z M 96.117188 212.121094 C 92.671875 212.121094 92.671875 217.375 96.117188 217.375 C 99.5625 217.375 99.5625 212.121094 96.117188 212.121094 Z M 242.789062 249.695312 C 239.34375 249.695312 239.34375 254.945312 242.789062 254.945312 C 246.234375 254.945312 246.234375 249.695312 242.789062 249.695312 Z M 80.039062 248.875 C 76.59375 248.875 76.59375 254.125 80.039062 254.125 C 83.484375 254.125 83.484375 248.875 80.039062 248.875 Z M 80.039062 248.875 " fill-opacity="1" fill-rule="nonzero"/></g><path fill="#353535" d="M 212.929688 240.179688 C 212.929688 249.039062 209.648438 257.570312 203.578125 263.972656 C 196.851562 271.191406 187.5 275.292969 177.65625 275.292969 C 170.273438 275.292969 163.21875 272.996094 157.3125 268.894531 C 151.242188 264.628906 146.484375 258.226562 144.1875 251.171875 C 143.039062 247.5625 142.382812 243.953125 142.382812 240.179688 C 142.382812 239.03125 143.367188 238.046875 144.515625 238.046875 C 145.664062 238.046875 146.648438 239.03125 146.648438 240.179688 C 146.648438 243.460938 147.140625 246.742188 148.289062 250.023438 C 150.421875 256.257812 154.523438 261.839844 159.9375 265.613281 C 165.1875 269.386719 171.421875 271.355469 177.820312 271.355469 C 186.515625 271.355469 194.882812 267.746094 200.789062 261.347656 C 206.039062 255.601562 208.992188 248.054688 208.992188 240.34375 C 208.992188 239.195312 209.976562 238.210938 211.125 238.210938 C 212.273438 238.210938 212.929688 239.03125 212.929688 240.179688 Z M 211.289062 190.792969 C 203.414062 190.792969 197.015625 197.191406 197.015625 205.066406 C 197.015625 206.214844 198 207.199219 199.148438 207.199219 C 200.296875 207.199219 201.28125 206.214844 201.28125 205.066406 C 201.28125 199.488281 205.875 194.894531 211.453125 194.894531 C 217.03125 194.894531 221.625 199.488281 221.625 205.066406 C 221.625 206.214844 222.609375 207.199219 223.757812 207.199219 C 224.90625 207.199219 225.890625 206.214844 225.890625 205.066406 C 225.398438 197.191406 219 190.792969 211.289062 190.792969 Z M 154.195312 204.902344 C 154.195312 206.050781 155.179688 207.035156 156.328125 207.035156 C 157.476562 207.035156 158.460938 206.050781 158.460938 204.902344 C 158.460938 197.027344 152.0625 190.628906 144.1875 190.628906 C 136.3125 190.628906 129.914062 197.027344 129.914062 204.902344 C 129.914062 206.050781 130.898438 207.035156 132.046875 207.035156 C 133.195312 207.035156 134.179688 206.050781 134.179688 204.902344 C 134.179688 199.324219 138.773438 194.730469 144.351562 194.730469 C 149.601562 194.894531 154.195312 199.324219 154.195312 204.902344 Z M 154.195312 204.902344 " fill-opacity="1" fill-rule="nonzero"/><path fill="#ff5a5a" d="M 239.671875 226.234375 C 239.671875 230.664062 233.601562 234.273438 226.054688 234.273438 C 218.507812 234.273438 212.4375 230.664062 212.4375 226.234375 C 212.4375 221.804688 218.507812 218.195312 226.054688 218.195312 C 233.601562 218.195312 239.671875 221.804688 239.671875 226.234375 Z M 129.257812 218.195312 C 121.710938 218.195312 115.640625 221.804688 115.640625 226.234375 C 115.640625 230.664062 121.710938 234.273438 129.257812 234.273438 C 136.804688 234.273438 142.875 230.664062 142.875 226.234375 C 142.875 221.804688 136.640625 218.195312 129.257812 218.195312 Z M 129.257812 218.195312 " fill-opacity="1" fill-rule="nonzero"/></svg>