<svg xmlns="http://www.w3.org/2000/svg" xmlns:xlink="http://www.w3.org/1999/xlink" width="500" zoomAndPan="magnify" viewBox="0 0 375 374.999991" height="500" preserveAspectRatio="xMidYMid meet" version="1.0"><defs><clipPath id="0d4e9b0141"><path d="M 37.5 67 L 198 67 L 198 307 L 37.5 307 Z M 37.5 67 " clip-rule="nonzero"/></clipPath><clipPath id="20074815f9"><path d="M 196 65.625 L 337.5 65.625 L 337.5 304 L 196 304 Z M 196 65.625 " clip-rule="nonzero"/></clipPath><clipPath id="0540b79171"><path d="M 143 303 L 264 303 L 264 309.375 L 143 309.375 Z M 143 303 " clip-rule="nonzero"/></clipPath></defs><path fill="#000000" d="M 196.832031 67.351562 C 196.761719 67.351562 196.761719 67.445312 196.832031 67.445312 C 196.878906 67.445312 196.878906 67.351562 196.832031 67.351562 Z M 196.832031 67.351562 " fill-opacity="1" fill-rule="nonzero"/><path fill="#000000" d="M 144.941406 123.230469 C 145.082031 123.207031 145.011719 123.230469 144.941406 123.230469 Z M 144.941406 123.230469 " fill-opacity="1" fill-rule="nonzero"/><path fill="#000000" d="M 111.15625 158.253906 C 111.179688 158.417969 111.179688 158.300781 111.15625 158.253906 Z M 111.15625 158.253906 " fill-opacity="1" fill-rule="nonzero"/><path fill="#000000" d="M 147.4375 123 C 147.601562 122.976562 147.601562 122.976562 147.4375 123 Z M 147.4375 123 " fill-opacity="1" fill-rule="nonzero"/><g clip-path="url(#0d4e9b0141)"><path fill="#000000" d="M 196.972656 67.398438 C 196.203125 68.773438 195.035156 69.988281 193.730469 70.851562 C 193.355469 71.109375 193.03125 71.433594 192.65625 71.738281 C 192.585938 71.785156 192.515625 71.855469 192.445312 71.902344 C 192.398438 71.949219 192.351562 71.972656 192.304688 71.996094 C 192.144531 72.109375 191.980469 72.25 191.792969 72.367188 C 191.117188 72.859375 190.417969 73.277344 189.691406 73.675781 C 189.320312 73.882812 188.945312 74.070312 188.574219 74.257812 C 188.386719 74.351562 188.222656 74.421875 188.035156 74.515625 C 187.941406 74.5625 187.851562 74.609375 187.757812 74.632812 C 187.710938 74.65625 187.664062 74.679688 187.640625 74.679688 C 187.59375 74.699219 187.59375 74.699219 187.640625 74.679688 C 187.734375 74.632812 187.6875 74.65625 187.476562 74.746094 C 187.429688 74.769531 187.359375 74.792969 187.3125 74.816406 C 187.195312 74.863281 187.078125 74.910156 186.964844 74.957031 C 186.730469 75.050781 186.496094 75.144531 186.261719 75.238281 C 185.796875 75.425781 185.308594 75.585938 184.816406 75.726562 C 182.925781 76.335938 180.96875 76.824219 179.03125 77.269531 C 177.070312 77.734375 175.109375 78.15625 173.128906 78.574219 C 172.125 78.785156 171.144531 78.996094 170.164062 79.25 C 169.183594 79.53125 168.226562 79.835938 167.246094 80.136719 C 163.585938 81.328125 160.015625 82.773438 156.632812 84.59375 C 153.621094 86.226562 150.730469 88.1875 148.300781 90.613281 C 145.828125 93.085938 143.867188 96.097656 142.84375 99.457031 C 141.816406 102.839844 141.769531 106.480469 142.515625 109.910156 C 143.238281 113.363281 144.847656 116.582031 147.089844 119.289062 C 147.625 119.941406 148.207031 120.546875 148.816406 121.132812 C 148.324219 121.085938 147.835938 121.0625 147.34375 121.039062 C 146.109375 120.992188 144.824219 121.109375 143.589844 121.25 C 142.257812 121.386719 140.953125 121.597656 139.644531 121.902344 C 139.015625 122.042969 138.386719 122.136719 137.78125 122.273438 C 137.171875 122.414062 136.566406 122.578125 135.984375 122.765625 C 134.511719 123.230469 133.089844 123.792969 131.667969 124.421875 C 131.78125 124.375 131.921875 124.304688 132.039062 124.257812 C 130.476562 124.910156 128.960938 125.773438 127.511719 126.683594 C 126.042969 127.59375 124.644531 128.597656 123.289062 129.671875 C 120.746094 131.65625 118.484375 133.964844 116.476562 136.484375 C 114.308594 139.214844 112.394531 142.109375 111.015625 145.304688 C 110.597656 146.285156 110.175781 147.289062 109.851562 148.3125 C 109.523438 149.269531 109.222656 150.25 109.082031 151.230469 C 109.011719 151.742188 108.964844 152.28125 108.917969 152.792969 C 108.894531 153.261719 108.917969 153.726562 108.917969 154.21875 C 108.917969 155.101562 108.871094 155.964844 108.988281 156.828125 C 109.058594 157.320312 109.128906 157.785156 109.222656 158.253906 C 109.269531 158.441406 109.289062 158.625 109.359375 158.8125 C 109.382812 158.90625 109.429688 158.976562 109.453125 159.070312 C 109.476562 159.117188 109.5 159.1875 109.523438 159.234375 C 109.546875 159.328125 109.59375 159.398438 109.617188 159.488281 C 109.570312 159.398438 109.570312 159.375 109.570312 159.441406 C 109.59375 159.628906 109.6875 159.816406 109.734375 160.003906 C 109.804688 160.238281 109.875 160.46875 109.96875 160.679688 C 110.109375 160.984375 109.898438 160.492188 110.015625 160.796875 C 110.039062 160.84375 110.039062 160.867188 110.0625 160.890625 C 109.898438 160.773438 109.6875 160.726562 109.476562 160.773438 C 108.941406 160.84375 108.449219 160.867188 107.960938 161.054688 C 107.449219 161.261719 106.910156 161.449219 106.398438 161.660156 C 105.324219 162.078125 104.273438 162.523438 103.222656 162.988281 C 101.289062 163.875 99.351562 164.808594 97.484375 165.859375 C 93.726562 167.984375 90.136719 170.433594 86.914062 173.300781 C 80.6875 178.878906 75.785156 186.273438 74.152344 194.558594 C 73.359375 198.664062 73.382812 202.910156 74.410156 206.96875 C 74.96875 209.210938 75.832031 211.402344 76.90625 213.457031 C 74.621094 213.574219 72.332031 213.945312 70.140625 214.625 C 67.527344 215.441406 65.054688 216.582031 62.671875 217.914062 C 57.867188 220.691406 53.574219 224.121094 49.609375 227.851562 C 47.554688 229.789062 45.617188 231.820312 43.914062 234.082031 C 42.1875 236.367188 40.8125 238.914062 39.855469 241.617188 C 37.964844 246.984375 37.636719 252.886719 38.175781 258.511719 C 38.710938 264.203125 40.179688 269.804688 42.839844 274.867188 C 45.335938 279.625 48.929688 283.757812 53.105469 287.117188 C 57.515625 290.664062 62.464844 293.371094 67.691406 295.539062 C 73.195312 297.824219 78.984375 299.433594 84.769531 300.835938 C 90.8125 302.304688 96.925781 303.542969 103.085938 304.523438 C 106.210938 305.011719 109.359375 305.457031 112.511719 305.78125 C 115.589844 306.109375 118.671875 306.433594 121.773438 306.480469 C 123.3125 306.503906 124.832031 306.503906 126.371094 306.457031 C 126.789062 306.433594 127.140625 306.15625 127.1875 305.734375 C 127.234375 305.363281 127 304.894531 126.601562 304.824219 C 120.558594 303.867188 114.539062 303.285156 108.519531 302.398438 C 102.5 301.511719 96.503906 300.460938 90.578125 299.132812 C 84.792969 297.847656 79.007812 296.402344 73.40625 294.488281 C 72.054688 294.023438 70.699219 293.53125 69.371094 292.996094 C 68.085938 292.484375 66.875 291.96875 65.542969 291.316406 C 63.140625 290.171875 60.832031 288.890625 58.613281 287.441406 C 58.078125 287.09375 57.539062 286.71875 57.027344 286.347656 C 56.792969 286.183594 56.539062 285.996094 56.304688 285.808594 C 56.164062 285.714844 56.023438 285.601562 55.882812 285.507812 C 55.859375 285.484375 55.859375 285.484375 55.835938 285.484375 C 55.765625 285.4375 55.71875 285.390625 55.652344 285.34375 C 54.648438 284.550781 53.691406 283.734375 52.78125 282.871094 C 51.847656 281.984375 50.9375 281.074219 50.097656 280.09375 C 49.675781 279.601562 49.257812 279.113281 48.859375 278.625 C 48.628906 278.320312 48.699219 278.414062 48.464844 278.109375 C 48.253906 277.828125 48.042969 277.550781 47.859375 277.269531 C 47.109375 276.195312 46.410156 275.078125 45.78125 273.910156 C 45.453125 273.304688 45.152344 272.695312 44.847656 272.089844 C 44.707031 271.785156 44.566406 271.484375 44.429688 271.15625 C 44.359375 271.015625 44.3125 270.878906 44.242188 270.714844 C 44.195312 270.621094 44.171875 270.527344 44.125 270.433594 C 43.097656 267.914062 42.351562 265.300781 41.839844 262.640625 C 41.699219 261.964844 41.582031 261.289062 41.488281 260.609375 C 41.417969 260.214844 41.441406 260.308594 41.394531 259.910156 C 41.347656 259.539062 41.300781 259.1875 41.277344 258.8125 C 41.136719 257.460938 41.066406 256.085938 41.042969 254.707031 C 41.019531 253.332031 41.066406 251.953125 41.160156 250.578125 C 41.277344 249.085938 41.394531 248.105469 41.675781 246.660156 C 41.929688 245.304688 42.28125 244 42.722656 242.691406 C 43.167969 241.363281 43.609375 240.359375 44.3125 239.074219 C 44.964844 237.886719 45.6875 236.765625 46.503906 235.667969 C 46.550781 235.597656 46.597656 235.550781 46.644531 235.480469 C 46.644531 235.480469 46.691406 235.4375 46.714844 235.390625 C 46.738281 235.34375 46.785156 235.296875 46.785156 235.296875 C 46.832031 235.226562 46.878906 235.179688 46.925781 235.109375 C 47.15625 234.828125 47.390625 234.550781 47.625 234.269531 C 48.042969 233.777344 48.488281 233.289062 48.929688 232.800781 C 50.773438 230.839844 52.757812 229.019531 54.789062 227.246094 C 55.765625 226.40625 56.769531 225.566406 57.796875 224.773438 C 58.101562 224.539062 58.078125 224.539062 58.402344 224.304688 C 58.660156 224.097656 58.941406 223.910156 59.195312 223.699219 C 59.734375 223.304688 60.269531 222.929688 60.808594 222.554688 C 62.953125 221.085938 65.195312 219.757812 67.550781 218.660156 C 68.25 218.332031 68.691406 218.148438 69.324219 217.867188 C 69.324219 217.867188 69.394531 217.84375 69.441406 217.820312 C 69.488281 217.796875 69.554688 217.773438 69.554688 217.773438 C 69.695312 217.726562 69.835938 217.65625 69.976562 217.609375 C 70.304688 217.46875 70.628906 217.351562 70.957031 217.238281 C 72.144531 216.792969 73.359375 216.421875 74.574219 216.070312 C 75.691406 215.765625 76.835938 215.535156 77.980469 215.347656 C 78.351562 215.953125 78.773438 216.558594 79.191406 217.144531 C 83.8125 223.511719 90.320312 228.320312 97.484375 231.421875 C 101.683594 233.242188 106.070312 234.503906 110.527344 235.480469 C 112.722656 235.949219 114.9375 236.324219 117.152344 236.671875 C 119.394531 237.046875 121.632812 237.324219 123.875 237.558594 C 124.945312 237.675781 126.042969 237.769531 127.117188 237.863281 C 127.558594 237.910156 127.652344 237.1875 127.210938 237.09375 C 125.039062 236.601562 122.871094 236.066406 120.675781 235.644531 C 119.605469 235.4375 118.53125 235.226562 117.457031 234.992188 C 116.382812 234.757812 115.332031 234.480469 114.261719 234.246094 C 109.992188 233.265625 105.816406 232.027344 101.707031 230.441406 C 99.703125 229.671875 97.882812 228.878906 95.898438 227.851562 C 94.21875 226.988281 92.585938 226.007812 91.046875 224.9375 C 90.695312 224.703125 90.34375 224.445312 90.019531 224.191406 C 89.832031 224.050781 89.644531 223.910156 89.457031 223.769531 C 89.433594 223.769531 89.34375 223.675781 89.296875 223.652344 C 89.203125 223.582031 89.109375 223.488281 88.992188 223.417969 C 88.269531 222.835938 87.570312 222.253906 86.890625 221.625 C 85.539062 220.386719 84.253906 219.054688 83.113281 217.632812 C 82.972656 217.445312 82.832031 217.285156 82.691406 217.097656 C 82.667969 217.074219 82.527344 216.886719 82.550781 216.910156 C 82.503906 216.863281 82.460938 216.792969 82.414062 216.746094 C 82.132812 216.375 81.875 216.023438 81.617188 215.648438 C 81.105469 214.902344 80.640625 214.132812 80.171875 213.363281 C 79.707031 212.59375 79.285156 211.800781 78.914062 210.984375 C 78.820312 210.773438 78.726562 210.585938 78.632812 210.378906 C 78.585938 210.285156 78.539062 210.167969 78.492188 210.074219 C 78.492188 210.050781 78.46875 210.050781 78.46875 210.027344 C 78.46875 210.027344 78.46875 210.003906 78.46875 210.003906 C 78.304688 209.582031 78.144531 209.164062 77.980469 208.742188 C 77.675781 207.878906 77.394531 206.992188 77.1875 206.105469 C 77.09375 205.6875 77 205.265625 76.90625 204.847656 C 76.859375 204.613281 76.8125 204.402344 76.789062 204.171875 C 76.765625 204.054688 76.742188 203.9375 76.742188 203.84375 C 76.742188 203.820312 76.71875 203.726562 76.71875 203.632812 C 76.417969 201.699219 76.4375 199.667969 76.625 197.730469 C 76.648438 197.472656 76.671875 197.242188 76.695312 196.984375 C 76.695312 196.960938 76.695312 196.914062 76.71875 196.890625 C 76.71875 196.890625 76.742188 196.679688 76.742188 196.632812 C 76.8125 196.097656 76.90625 195.585938 77.023438 195.046875 C 77.234375 194.066406 77.464844 193.113281 77.769531 192.15625 C 78.074219 191.199219 78.398438 190.265625 78.773438 189.332031 C 78.773438 189.308594 78.84375 189.144531 78.867188 189.097656 C 78.890625 189.027344 78.9375 188.933594 78.960938 188.863281 C 79.050781 188.632812 79.167969 188.398438 79.261719 188.1875 C 79.472656 187.722656 79.707031 187.277344 79.914062 186.835938 C 80.847656 185.039062 81.921875 183.335938 83.113281 181.703125 C 83.253906 181.492188 83.414062 181.304688 83.554688 181.09375 C 83.578125 181.070312 83.578125 181.070312 83.601562 181.046875 C 83.601562 181.023438 83.625 181.023438 83.648438 181.003906 C 83.71875 180.910156 83.8125 180.816406 83.882812 180.699219 C 84.210938 180.277344 84.535156 179.882812 84.886719 179.484375 C 85.5625 178.691406 86.285156 177.945312 87.007812 177.199219 C 88.480469 175.730469 90.042969 174.375 91.675781 173.09375 C 91.699219 173.070312 91.699219 173.070312 91.722656 173.046875 C 91.746094 173.023438 91.769531 173.023438 91.792969 173 C 91.957031 172.859375 92.117188 172.742188 92.304688 172.601562 C 92.09375 172.765625 92.28125 172.625 92.304688 172.601562 C 92.398438 172.53125 92.515625 172.4375 92.609375 172.371094 C 93.050781 172.019531 93.519531 171.691406 93.960938 171.367188 C 94.800781 170.757812 95.664062 170.175781 96.550781 169.617188 C 100.050781 167.351562 103.738281 165.394531 107.425781 163.433594 C 107.890625 163.199219 108.335938 162.941406 108.800781 162.710938 C 109.269531 162.476562 109.664062 162.054688 110.0625 161.730469 C 110.222656 161.589844 110.269531 161.355469 110.222656 161.144531 C 110.246094 161.167969 110.269531 161.238281 110.292969 161.261719 C 110.316406 161.285156 110.363281 161.332031 110.339844 161.285156 C 110.410156 161.402344 110.457031 161.566406 110.503906 161.683594 C 111.132812 163.175781 112.066406 164.597656 113.28125 165.695312 C 113.585938 165.976562 113.910156 166.210938 114.238281 166.464844 C 114.515625 166.722656 114.960938 166.304688 114.65625 166.046875 C 114.332031 165.765625 114.050781 165.417969 113.792969 165.089844 C 113.539062 164.785156 113.304688 164.460938 113.070312 164.109375 C 112.605469 163.410156 112.207031 162.640625 111.878906 161.871094 C 111.835938 161.777344 111.742188 161.542969 111.695312 161.378906 C 111.648438 161.285156 111.625 161.191406 111.601562 161.101562 C 111.578125 161.054688 111.578125 161.007812 111.554688 160.960938 C 111.554688 160.984375 111.53125 160.867188 111.53125 160.84375 C 111.507812 160.609375 111.507812 160.375 111.460938 160.144531 C 111.414062 159.933594 111.367188 159.722656 111.320312 159.511719 C 111.273438 159.328125 111.25 159.117188 111.226562 158.929688 C 111.226562 158.929688 111.226562 158.90625 111.226562 158.90625 C 111.226562 158.859375 111.226562 158.789062 111.226562 158.742188 C 111.226562 158.625 111.226562 158.511719 111.226562 158.417969 C 111.226562 158.371094 111.203125 158.089844 111.179688 158.089844 C 111.179688 158.089844 111.203125 158.113281 111.203125 158.113281 C 111.203125 158.019531 111.179688 157.902344 111.179688 157.808594 C 111.15625 157.578125 111.15625 157.367188 111.15625 157.132812 C 111.15625 156.667969 111.15625 156.199219 111.179688 155.734375 C 111.203125 155.476562 111.203125 155.21875 111.226562 154.964844 C 111.25 154.824219 111.25 154.707031 111.273438 154.566406 C 111.273438 154.519531 111.296875 154.449219 111.296875 154.402344 C 111.460938 153.914062 111.554688 153.398438 111.695312 152.910156 C 111.835938 152.398438 112.019531 151.882812 112.183594 151.371094 C 112.464844 150.414062 112.789062 149.480469 113.164062 148.570312 C 113.769531 147.148438 114.515625 145.769531 115.289062 144.417969 C 115.964844 143.226562 116.664062 142.085938 117.433594 140.964844 C 117.832031 140.382812 118.25 139.820312 118.671875 139.261719 C 120.535156 136.882812 122.636719 134.710938 124.898438 132.726562 C 125.507812 132.191406 126.113281 131.703125 126.742188 131.210938 C 129.101562 129.414062 131.644531 127.875 134.304688 126.546875 C 135.003906 126.195312 135.726562 125.867188 136.472656 125.542969 C 136.984375 125.332031 137.523438 125.144531 138.035156 124.910156 C 138.875 124.5625 139.738281 124.234375 140.625 123.976562 C 141.511719 123.746094 142.398438 123.535156 143.308594 123.347656 C 143.753906 123.253906 144.195312 123.183594 144.640625 123.113281 C 144.730469 123.09375 144.824219 123.09375 144.917969 123.070312 C 144.941406 123.070312 144.941406 123.070312 144.964844 123.070312 C 144.941406 123.070312 144.917969 123.070312 144.894531 123.070312 C 144.941406 123.070312 144.988281 123.070312 145.035156 123.046875 C 145.269531 123.023438 145.527344 122.976562 145.757812 122.953125 C 146.226562 122.90625 146.667969 122.859375 147.136719 122.835938 C 147.183594 122.835938 147.253906 122.835938 147.300781 122.835938 C 147.300781 122.835938 147.320312 122.835938 147.320312 122.835938 C 147.367188 122.835938 147.414062 122.8125 147.460938 122.8125 C 147.484375 122.789062 147.742188 122.789062 147.789062 122.789062 C 148.023438 122.765625 148.277344 122.742188 148.511719 122.742188 C 148.769531 122.71875 149.027344 122.71875 149.28125 122.695312 C 149.328125 122.695312 149.398438 122.695312 149.445312 122.695312 C 149.679688 122.648438 149.726562 122.648438 149.585938 122.671875 C 149.609375 122.671875 149.632812 122.671875 149.65625 122.671875 C 149.796875 122.671875 149.910156 122.648438 150.050781 122.648438 C 150.308594 122.648438 150.542969 122.648438 150.796875 122.625 C 152.199219 123.652344 153.714844 124.515625 155.277344 125.191406 C 156.910156 125.890625 158.566406 126.429688 160.316406 126.753906 C 161.226562 126.917969 162.160156 127.082031 163.09375 127.105469 C 163.910156 127.128906 164.75 127.105469 165.566406 127.058594 C 165.964844 127.035156 166.382812 126.988281 166.78125 126.941406 C 167.039062 126.917969 167.316406 126.871094 167.574219 126.824219 C 167.667969 126.800781 167.761719 126.800781 167.832031 126.777344 C 167.878906 126.777344 168.273438 126.707031 167.972656 126.753906 C 168.554688 126.683594 169.113281 126.289062 169.089844 125.636719 C 169.066406 125.074219 168.601562 124.46875 167.972656 124.515625 C 167.085938 124.609375 166.152344 124.539062 165.289062 124.46875 C 165.195312 124.46875 165.101562 124.445312 165.007812 124.445312 C 165.03125 124.445312 164.820312 124.421875 164.820312 124.421875 C 164.84375 124.421875 164.890625 124.421875 164.914062 124.445312 C 165.125 124.46875 165.03125 124.46875 164.632812 124.421875 C 164.609375 124.421875 164.472656 124.398438 164.402344 124.398438 C 164.355469 124.398438 164.285156 124.375 164.238281 124.375 C 163.792969 124.304688 163.351562 124.210938 162.929688 124.140625 C 161.179688 123.863281 159.476562 123.394531 157.820312 122.742188 C 157.683594 122.695312 157.542969 122.648438 157.425781 122.578125 C 157.425781 122.578125 157.425781 122.578125 157.378906 122.554688 C 157.332031 122.53125 157.285156 122.507812 157.261719 122.507812 C 157.144531 122.460938 157.003906 122.390625 156.886719 122.34375 C 156.492188 122.160156 156.09375 121.972656 155.722656 121.761719 C 154.929688 121.34375 154.160156 120.875 153.433594 120.363281 C 153.273438 120.246094 153.085938 120.128906 152.921875 119.988281 C 152.898438 119.964844 152.828125 119.917969 152.78125 119.871094 C 152.734375 119.824219 152.6875 119.800781 152.664062 119.777344 C 152.316406 119.5 151.964844 119.21875 151.636719 118.914062 C 150.984375 118.332031 150.355469 117.703125 149.796875 117.027344 C 149.632812 116.839844 149.46875 116.628906 149.304688 116.441406 C 149.234375 116.324219 149.140625 116.230469 149.070312 116.117188 C 148.792969 115.71875 148.511719 115.300781 148.253906 114.902344 C 147.765625 114.109375 147.34375 113.292969 146.972656 112.429688 C 146.34375 110.890625 145.898438 109.277344 145.664062 107.644531 C 145.480469 106.058594 145.480469 104.472656 145.664062 102.886719 C 145.875 101.488281 146.25 100.132812 146.761719 98.828125 C 147.113281 98.035156 147.507812 97.261719 147.953125 96.515625 C 148.183594 96.121094 148.441406 95.746094 148.699219 95.375 C 148.816406 95.210938 148.933594 95.046875 149.070312 94.859375 C 149.140625 94.835938 149.28125 94.601562 149.304688 94.558594 C 150.472656 93.109375 151.824219 91.804688 153.273438 90.660156 C 153.34375 90.613281 153.410156 90.566406 153.457031 90.496094 C 153.433594 90.496094 153.433594 90.519531 153.410156 90.519531 C 153.433594 90.496094 153.480469 90.472656 153.503906 90.449219 C 153.527344 90.449219 153.527344 90.425781 153.550781 90.425781 C 153.574219 90.402344 153.621094 90.378906 153.644531 90.355469 C 153.808594 90.242188 153.972656 90.101562 154.136719 89.984375 C 154.507812 89.703125 154.90625 89.445312 155.300781 89.167969 C 156.09375 88.628906 156.910156 88.140625 157.75 87.652344 C 159.410156 86.71875 161.113281 85.855469 162.839844 85.082031 C 163.117188 84.96875 163.375 84.851562 163.65625 84.734375 C 163.769531 84.6875 163.886719 84.640625 164.003906 84.570312 C 164.097656 84.523438 164.609375 84.289062 164.167969 84.5 C 164.773438 84.21875 165.40625 83.941406 166.011719 83.683594 C 166.128906 83.636719 166.246094 83.589844 166.359375 83.519531 C 166.40625 83.496094 166.453125 83.472656 166.523438 83.449219 C 166.78125 83.335938 167.0625 83.21875 167.316406 83.125 C 167.878906 82.890625 168.414062 82.679688 168.972656 82.472656 C 170.046875 82.050781 171.121094 81.652344 172.195312 81.257812 C 173.289062 80.835938 174.386719 80.441406 175.507812 80.113281 C 179.871094 78.855469 184.398438 78.0625 188.550781 76.148438 C 190.300781 75.332031 191.957031 74.328125 193.472656 73.113281 C 193.824219 72.8125 194.171875 72.507812 194.523438 72.203125 C 194.871094 71.878906 195.152344 71.410156 195.410156 71.015625 C 195.921875 70.246094 196.367188 69.429688 196.738281 68.566406 C 196.925781 68.144531 197.113281 67.75 197.277344 67.328125 C 197.347656 67.351562 197.066406 67.234375 196.972656 67.398438 Z M 196.972656 67.398438 " fill-opacity="1" fill-rule="nonzero"/></g><path fill="#000000" d="M 153.503906 90.636719 C 153.480469 90.660156 153.480469 90.660156 153.457031 90.683594 C 153.667969 90.542969 153.667969 90.519531 153.644531 90.542969 C 153.621094 90.566406 153.597656 90.589844 153.550781 90.613281 C 153.527344 90.613281 153.503906 90.636719 153.503906 90.636719 Z M 153.503906 90.636719 " fill-opacity="1" fill-rule="nonzero"/><g clip-path="url(#20074815f9)"><path fill="#000000" d="M 336.101562 248.664062 C 335.074219 243.53125 333.070312 238.5625 329.894531 234.386719 C 326.652344 230.140625 322.617188 226.429688 318.460938 223.09375 C 314.425781 219.851562 310.132812 216.980469 305.445312 214.785156 C 303.109375 213.691406 300.730469 212.734375 298.28125 211.988281 C 295.878906 211.242188 293.382812 210.75 290.859375 210.445312 C 290.042969 210.355469 289.226562 210.285156 288.410156 210.238281 C 288.972656 209.375 289.484375 208.488281 289.949219 207.601562 C 292.121094 203.285156 293.148438 198.382812 292.820312 193.554688 C 292.632812 190.988281 292.097656 188.46875 291.257812 186.042969 C 290.394531 183.570312 289.296875 181.164062 287.945312 178.925781 C 287.269531 177.804688 286.472656 176.777344 285.773438 175.683594 C 285.050781 174.539062 284.210938 173.488281 283.324219 172.460938 C 282.460938 171.484375 281.574219 170.527344 280.617188 169.617188 C 279.589844 168.636719 278.472656 167.773438 277.328125 166.910156 C 274.855469 165.089844 272.195312 163.550781 269.347656 162.429688 C 266.527344 161.332031 263.5625 160.632812 260.597656 160.167969 C 260.179688 160.097656 259.757812 160.003906 259.339844 160.003906 C 259.246094 160.003906 259.152344 160.003906 259.058594 160.003906 C 261.789062 156.269531 262.933594 151.625 262.699219 147.007812 C 262.464844 142.363281 260.949219 137.882812 258.78125 133.777344 C 256.679688 129.835938 254.089844 126.289062 250.917969 123.136719 C 247.742188 119.964844 244.035156 117.257812 240.277344 114.808594 C 236.054688 112.054688 231.621094 109.605469 227.140625 107.273438 C 222.660156 104.917969 218.25 102.371094 214.074219 99.480469 C 213.09375 98.804688 212.277344 98.21875 211.4375 97.496094 C 210.644531 96.796875 209.828125 95.980469 209.339844 95.234375 C 208.054688 93.320312 207.84375 91.242188 207.9375 88.957031 C 208.03125 86.554688 208.453125 84.199219 208.265625 81.792969 C 208.125 79.789062 207.707031 77.78125 206.957031 75.890625 C 206.1875 73.976562 205.230469 72.226562 203.925781 70.640625 C 202.710938 69.171875 201.3125 67.839844 199.703125 66.816406 C 198.886719 66.300781 198.070312 65.929688 197.136719 65.671875 C 196.972656 65.625 196.878906 65.859375 197.019531 65.929688 C 198.675781 66.929688 200.261719 68.050781 201.59375 69.5 C 202.875 70.898438 203.761719 72.625 204.4375 74.375 C 205.140625 76.125 205.558594 77.992188 205.722656 79.882812 C 205.886719 82.074219 205.582031 84.21875 205.324219 86.414062 C 205.046875 88.792969 204.8125 91.21875 205.371094 93.578125 C 205.933594 95.933594 207.355469 97.941406 209.152344 99.550781 C 210.949219 101.160156 212.980469 102.511719 215.007812 103.820312 C 217.085938 105.171875 219.183594 106.457031 221.332031 107.714844 C 223.5 108.976562 225.625 110.304688 227.792969 111.566406 C 229.917969 112.777344 232.039062 114.015625 234.117188 115.277344 C 236.171875 116.535156 238.222656 117.773438 240.207031 119.148438 C 241.09375 119.753906 241.980469 120.386719 242.867188 121.039062 C 243.054688 121.179688 243.261719 121.34375 243.449219 121.480469 C 243.496094 121.503906 243.613281 121.597656 243.636719 121.621094 C 243.683594 121.667969 243.730469 121.691406 243.800781 121.738281 C 244.265625 122.113281 244.734375 122.484375 245.199219 122.859375 C 248.464844 125.566406 251.570312 128.550781 254.230469 131.863281 C 254.464844 132.167969 254.742188 132.519531 254.976562 132.84375 C 255.304688 133.335938 255.652344 133.800781 255.980469 134.292969 C 256.539062 135.15625 257.054688 136.066406 257.519531 136.996094 C 258.476562 138.910156 259.199219 140.941406 259.6875 143.039062 C 260.644531 147.242188 260.597656 151.90625 258.757812 155.875 C 256.890625 159.863281 253.507812 162.757812 250.125 165.441406 C 249.304688 166.09375 248.464844 166.722656 247.601562 167.351562 C 247.207031 167.65625 246.996094 168.144531 247.277344 168.636719 C 247.511719 169.054688 248.117188 169.242188 248.558594 168.960938 C 252.058594 166.675781 255.511719 164.320312 258.195312 161.125 C 258.289062 161.238281 258.429688 161.332031 258.570312 161.378906 C 258.941406 161.496094 259.269531 161.683594 259.644531 161.777344 C 260.015625 161.871094 260.390625 161.988281 260.738281 162.078125 C 261.4375 162.265625 262.140625 162.453125 262.863281 162.640625 C 264.308594 163.011719 265.730469 163.457031 267.132812 163.945312 C 267.808594 164.179688 268.507812 164.4375 269.183594 164.714844 C 269.207031 164.714844 269.371094 164.785156 269.371094 164.785156 C 269.417969 164.808594 269.441406 164.808594 269.488281 164.832031 C 269.652344 164.902344 269.816406 164.972656 269.957031 165.042969 C 270.304688 165.207031 270.632812 165.371094 270.980469 165.53125 C 272.289062 166.1875 273.546875 166.933594 274.738281 167.75 C 275.34375 168.167969 275.929688 168.589844 276.511719 169.03125 C 276.558594 169.078125 276.605469 169.101562 276.652344 169.148438 C 276.675781 169.171875 276.746094 169.21875 276.769531 169.242188 C 276.910156 169.335938 277.023438 169.453125 277.164062 169.546875 C 277.421875 169.757812 277.679688 169.964844 277.910156 170.175781 C 278.890625 170.992188 279.847656 171.808594 280.78125 172.648438 C 281.714844 173.511719 282.601562 174.421875 283.441406 175.355469 C 283.839844 175.824219 284.304688 176.289062 284.703125 176.707031 C 285.074219 177.128906 285.449219 177.710938 285.796875 178.203125 C 287.199219 180.230469 288.457031 182.402344 289.367188 184.710938 C 289.835938 185.878906 290.207031 187.089844 290.511719 188.304688 C 290.652344 188.910156 290.789062 189.496094 290.90625 190.101562 C 291.023438 190.707031 291.117188 191.339844 291.1875 191.875 C 291.328125 193.042969 291.398438 194.207031 291.375 195.351562 C 291.375 195.933594 291.328125 196.542969 291.28125 197.125 C 291.257812 197.40625 291.234375 197.660156 291.210938 197.941406 C 291.1875 198.082031 291.1875 198.199219 291.164062 198.335938 C 291.164062 198.359375 291.164062 198.359375 291.164062 198.359375 C 291.164062 198.359375 291.164062 198.382812 291.164062 198.40625 C 291.140625 198.5 291.140625 198.59375 291.117188 198.6875 C 290.953125 199.832031 290.699219 200.972656 290.371094 202.09375 C 290.207031 202.628906 290.042969 203.167969 289.859375 203.703125 C 289.765625 203.960938 289.671875 204.21875 289.578125 204.449219 C 289.4375 204.777344 289.390625 204.917969 289.296875 205.152344 C 288.832031 206.199219 288.292969 207.226562 287.710938 208.207031 C 287.40625 208.671875 287.105469 209.140625 286.777344 209.605469 C 286.683594 209.722656 286.613281 209.839844 286.519531 209.957031 C 286.476562 210.003906 286.453125 210.074219 286.40625 210.121094 C 286.40625 210.121094 286.359375 210.191406 286.335938 210.214844 C 286.3125 210.261719 286.242188 210.332031 286.265625 210.308594 C 286.21875 210.378906 286.171875 210.421875 286.125 210.492188 C 286.03125 210.609375 285.914062 210.75 285.820312 210.867188 C 285.097656 211.707031 284.351562 212.523438 283.535156 213.292969 C 282.671875 214.085938 281.785156 214.761719 280.945312 215.488281 C 280.546875 215.835938 280.082031 216.140625 279.636719 216.421875 C 279.242188 216.675781 279.5 217.398438 279.988281 217.214844 C 281.109375 216.792969 282.179688 216.328125 283.183594 215.671875 C 284.1875 215.019531 285.121094 214.203125 285.960938 213.363281 C 286.636719 212.6875 287.246094 211.964844 287.828125 211.195312 C 297.417969 212.757812 306.191406 217.328125 313.9375 223.046875 C 314.964844 223.792969 315.6875 224.351562 316.667969 225.167969 C 317.621094 225.941406 318.554688 226.734375 319.464844 227.550781 C 321.402344 229.253906 323.292969 231.050781 325.066406 232.9375 C 326.886719 234.875 328.402344 236.8125 329.707031 239.144531 C 330.992188 241.386719 331.808594 243.4375 332.554688 245.933594 C 332.90625 247.125 333.207031 248.339844 333.441406 249.574219 C 333.558594 250.179688 333.675781 250.8125 333.769531 251.417969 C 333.863281 252.023438 333.910156 252.398438 333.980469 253.121094 C 334.257812 255.640625 334.328125 258.183594 334.257812 260.726562 C 334.1875 263.527344 333.957031 266.140625 333.417969 268.777344 C 333.140625 270.105469 332.789062 271.414062 332.34375 272.695312 C 332.230469 273.023438 332.113281 273.328125 331.996094 273.652344 C 331.949219 273.769531 331.902344 273.910156 331.855469 274.027344 C 331.832031 274.074219 331.738281 274.285156 331.738281 274.285156 C 331.480469 274.867188 331.203125 275.425781 330.921875 275.964844 C 330.386719 276.988281 329.777344 277.96875 329.125 278.925781 C 328.425781 279.953125 327.890625 280.605469 327.027344 281.585938 C 326.253906 282.449219 325.4375 283.289062 324.574219 284.058594 C 324.15625 284.457031 323.710938 284.828125 323.269531 285.203125 C 323.035156 285.390625 322.824219 285.578125 322.59375 285.761719 C 322.5 285.832031 322.40625 285.902344 322.3125 285.996094 C 322.265625 286.019531 322.21875 286.066406 322.195312 286.089844 C 322.171875 286.113281 322.148438 286.136719 322.101562 286.160156 C 317.972656 289.285156 313.28125 291.597656 308.5 293.371094 C 303.226562 295.304688 297.765625 296.683594 292.332031 297.964844 C 289.53125 298.617188 286.730469 299.226562 283.90625 299.761719 C 282.4375 300.042969 280.96875 300.320312 279.5 300.578125 C 278.097656 300.8125 276.699219 301.160156 275.296875 301.417969 C 273.898438 301.675781 272.476562 301.933594 271.074219 302.164062 C 270.351562 302.28125 270.515625 303.519531 271.261719 303.449219 C 272.753906 303.332031 274.226562 303.191406 275.71875 303.050781 C 277.234375 302.886719 278.75 302.796875 280.246094 302.5625 C 283.207031 302.117188 286.171875 301.605469 289.109375 301.046875 C 294.804688 299.949219 300.496094 298.710938 306.050781 297.03125 C 311.347656 295.421875 316.574219 293.371094 321.214844 290.335938 C 325.367188 287.628906 329.054688 284.246094 331.855469 280.140625 C 334.980469 275.566406 336.5 270.246094 337.035156 264.789062 C 337.363281 259.46875 337.152344 253.960938 336.101562 248.664062 Z M 336.101562 248.664062 " fill-opacity="1" fill-rule="nonzero"/></g><g clip-path="url(#0540b79171)"><path fill="#000000" d="M 263.375 303.820312 C 261.394531 303.730469 259.410156 303.796875 257.425781 303.820312 C 255.464844 303.84375 253.53125 303.867188 251.59375 303.960938 C 247.671875 304.148438 243.730469 304.242188 239.789062 304.429688 C 231.996094 304.800781 224.203125 305.128906 216.410156 305.523438 C 200.847656 306.296875 185.238281 306.644531 169.652344 306.808594 C 167.503906 306.832031 165.359375 306.878906 163.210938 306.878906 C 162.089844 306.878906 160.996094 306.996094 159.875 306.996094 C 158.753906 306.996094 157.660156 306.972656 156.539062 306.972656 C 154.390625 306.972656 152.246094 306.878906 150.097656 306.785156 C 147.882812 306.691406 145.664062 306.644531 143.425781 306.644531 C 143.332031 306.644531 143.308594 306.785156 143.402344 306.808594 C 145.316406 307.089844 147.207031 307.320312 149.140625 307.484375 C 151.125 307.625 153.109375 307.742188 155.089844 307.882812 C 158.988281 308.136719 162.863281 308.535156 166.757812 308.769531 C 174.527344 309.234375 182.34375 309.375 190.136719 309.234375 C 205.816406 308.976562 221.496094 308.253906 237.128906 306.972656 C 241.492188 306.621094 245.875 306.15625 250.238281 305.757812 C 252.433594 305.546875 254.648438 305.363281 256.84375 305.035156 C 259.035156 304.707031 261.207031 304.523438 263.375 304.125 C 263.5625 304.054688 263.515625 303.820312 263.375 303.820312 Z M 263.375 303.820312 " fill-opacity="1" fill-rule="nonzero"/></g><path fill="#000000" d="M 265.171875 225.472656 C 263.140625 226.007812 261.136719 226.476562 259.128906 227.058594 C 257.097656 227.667969 255.046875 228.296875 253.015625 228.902344 C 249.027344 230.09375 244.988281 231.164062 240.929688 232.074219 C 232.8125 233.941406 224.621094 235.15625 216.339844 235.925781 C 208.078125 236.695312 199.820312 237.277344 191.511719 237.535156 C 187.382812 237.652344 183.230469 237.722656 179.101562 237.722656 C 174.925781 237.722656 170.722656 237.675781 166.546875 237.839844 C 162.371094 238.003906 158.171875 237.699219 153.996094 237.582031 C 151.917969 237.535156 149.84375 237.464844 147.789062 237.394531 C 146.738281 237.371094 145.6875 237.417969 144.617188 237.417969 C 143.613281 237.417969 142.585938 237.394531 141.582031 237.488281 C 140.53125 237.582031 139.484375 237.535156 138.433594 237.535156 C 138.199219 237.535156 138.199219 237.886719 138.433594 237.886719 C 140.554688 238.09375 142.632812 238.375 144.753906 238.5625 C 146.832031 238.75 148.886719 238.914062 150.960938 239.003906 C 155.136719 239.214844 159.339844 239.378906 163.515625 239.519531 C 165.636719 239.589844 167.738281 239.777344 169.859375 239.867188 C 171.984375 239.9375 174.085938 240.007812 176.207031 240.078125 C 180.382812 240.195312 184.582031 240.125 188.761719 240.054688 C 197.089844 239.914062 205.417969 239.472656 213.726562 238.632812 C 222.054688 237.769531 230.335938 236.300781 238.503906 234.550781 C 242.609375 233.664062 246.671875 232.660156 250.707031 231.515625 C 252.757812 230.933594 254.789062 230.347656 256.820312 229.695312 C 258.78125 229.066406 260.808594 228.460938 262.652344 227.550781 C 263.585938 227.082031 264.566406 226.6875 265.523438 226.265625 C 265.964844 226.078125 265.640625 225.355469 265.171875 225.472656 Z M 265.171875 225.472656 " fill-opacity="1" fill-rule="nonzero"/><path fill="#000000" d="M 236.425781 168.03125 C 235.539062 168.214844 234.628906 168.332031 233.765625 168.566406 C 232.878906 168.800781 232.015625 168.984375 231.132812 169.171875 C 229.382812 169.546875 227.65625 169.894531 225.882812 170.152344 C 222.359375 170.664062 218.835938 171.085938 215.289062 171.34375 C 207.960938 171.902344 200.636719 172.347656 193.285156 172.601562 C 185.914062 172.859375 178.539062 172.742188 171.144531 172.648438 C 163.816406 172.554688 156.445312 172.277344 149.140625 171.550781 C 145.480469 171.203125 141.816406 170.851562 138.175781 170.269531 C 134.535156 169.6875 130.941406 168.960938 127.328125 168.214844 C 126.417969 168.03125 125.507812 167.84375 124.597656 167.632812 C 124.222656 167.539062 124.058594 168.097656 124.433594 168.214844 C 131.550781 170.269531 138.828125 171.667969 146.132812 172.882812 C 153.480469 174.074219 160.902344 174.820312 168.320312 175.238281 C 175.765625 175.660156 183.230469 175.566406 190.671875 175.332031 C 198.117188 175.097656 205.535156 174.75 212.957031 174.257812 C 220.1875 173.769531 227.65625 173.117188 234.492188 170.527344 C 235.332031 170.199219 236.148438 169.757812 236.941406 169.3125 C 237.640625 168.871094 237.152344 167.867188 236.425781 168.03125 Z M 236.425781 168.03125 " fill-opacity="1" fill-rule="nonzero"/><path fill="#000000" d="M 165.519531 88.792969 C 165.429688 88.769531 165.335938 88.769531 165.21875 88.746094 C 165.078125 88.722656 164.914062 88.675781 164.773438 88.675781 C 164.609375 88.675781 164.449219 88.722656 164.285156 88.792969 C 163.910156 88.933594 163.5625 89.074219 163.210938 89.261719 C 162.675781 89.515625 162.160156 89.820312 161.648438 90.125 C 161.414062 90.261719 161.15625 90.425781 160.925781 90.566406 C 160.550781 90.800781 160.226562 91.082031 159.875 91.359375 C 159.429688 91.734375 158.964844 92.105469 158.566406 92.550781 C 156.679688 94.535156 155.230469 96.867188 154.4375 99.503906 C 154.183594 100.34375 154.066406 101.183594 153.972656 102.046875 C 153.949219 102.394531 153.925781 102.722656 153.925781 103.074219 C 153.925781 103.234375 153.925781 103.398438 153.925781 103.5625 C 153.925781 103.820312 153.949219 104.078125 154.019531 104.308594 C 154.066406 104.542969 154.113281 104.636719 154.183594 104.730469 C 154.25 105.101562 154.320312 105.453125 154.414062 105.804688 C 154.460938 106.011719 154.53125 106.199219 154.601562 106.410156 C 154.671875 106.597656 154.71875 106.78125 154.835938 106.945312 C 155.023438 107.25 155.207031 107.414062 155.511719 107.621094 C 155.582031 107.667969 155.652344 107.714844 155.722656 107.761719 C 156.375 108.160156 157.402344 107.949219 157.75 107.226562 C 157.796875 107.132812 157.84375 107.0625 157.867188 106.992188 C 157.960938 106.851562 158.03125 106.6875 158.054688 106.527344 C 158.125 106.222656 158.125 105.941406 158.078125 105.640625 C 158.03125 105.242188 158.007812 104.824219 158.007812 104.425781 C 158.007812 104.402344 158.03125 104.378906 158.03125 104.378906 C 158.078125 104.285156 158.078125 104.167969 158.078125 104.054688 C 158.101562 103.867188 158.125 103.703125 158.125 103.539062 C 158.125 103.351562 158.125 103.191406 158.148438 103.003906 C 158.171875 102.722656 158.195312 102.441406 158.21875 102.1875 C 158.40625 100.996094 158.683594 99.804688 159.152344 98.6875 C 159.617188 97.636719 160.226562 96.632812 160.925781 95.699219 C 161.507812 94.976562 162.113281 94.253906 162.792969 93.601562 C 163.140625 93.25 163.46875 92.851562 163.839844 92.503906 C 164.191406 92.152344 164.566406 91.804688 164.9375 91.476562 C 165.148438 91.289062 165.335938 91.105469 165.542969 90.917969 C 165.660156 90.800781 165.753906 90.707031 165.847656 90.566406 C 165.941406 90.449219 165.964844 90.308594 166.011719 90.171875 C 166.035156 90.078125 166.082031 89.960938 166.128906 89.867188 C 166.199219 89.378906 165.917969 88.863281 165.519531 88.792969 Z M 165.519531 88.792969 " fill-opacity="1" fill-rule="nonzero"/><path fill="#000000" d="M 162.976562 117.980469 C 162.953125 117.867188 162.953125 117.726562 162.929688 117.609375 C 162.90625 117.375 162.792969 117.164062 162.675781 116.980469 C 162.582031 116.816406 162.488281 116.628906 162.371094 116.464844 C 162.113281 116.140625 161.90625 115.789062 161.671875 115.460938 C 161.15625 114.738281 160.714844 113.921875 160.179688 113.222656 C 160.226562 113.292969 160.292969 113.363281 160.339844 113.433594 C 160.25 113.316406 160.15625 113.175781 160.0625 113.058594 C 160.015625 112.988281 159.96875 112.941406 159.945312 112.871094 C 159.851562 112.753906 159.757812 112.640625 159.617188 112.546875 C 159.570312 112.5 159.5 112.5 159.429688 112.476562 C 159.363281 112.429688 159.316406 112.40625 159.246094 112.359375 C 159.105469 112.265625 158.917969 112.265625 158.777344 112.335938 C 158.613281 112.40625 158.542969 112.523438 158.476562 112.6875 C 158.453125 112.730469 158.429688 112.800781 158.40625 112.847656 C 158.289062 113.058594 158.242188 113.269531 158.265625 113.527344 C 158.289062 113.640625 158.289062 113.734375 158.3125 113.851562 C 158.335938 114.0625 158.359375 114.273438 158.40625 114.480469 C 158.429688 114.597656 158.476562 114.691406 158.523438 114.808594 C 158.707031 115.367188 158.941406 115.90625 159.222656 116.417969 C 159.5 116.933594 159.851562 117.398438 160.226562 117.867188 C 160.386719 118.074219 160.550781 118.238281 160.738281 118.402344 C 160.878906 118.519531 161.042969 118.660156 161.203125 118.777344 C 161.390625 118.890625 161.554688 118.9375 161.765625 118.960938 C 162.066406 119.007812 162.347656 118.984375 162.605469 118.796875 C 162.816406 118.566406 163 118.261719 162.976562 117.980469 Z M 162.976562 117.980469 " fill-opacity="1" fill-rule="nonzero"/><path fill="#000000" d="M 139.550781 131.070312 C 139.460938 131.046875 139.34375 131.023438 139.25 131.023438 C 139.15625 131.023438 139.039062 131.046875 138.945312 131.070312 C 138.851562 131.09375 138.78125 131.09375 138.6875 131.117188 C 138.644531 131.117188 138.621094 131.09375 138.574219 131.09375 C 138.339844 131.046875 138.128906 131.070312 137.894531 131.140625 C 137.734375 131.1875 137.570312 131.234375 137.40625 131.28125 C 137.007812 131.421875 136.613281 131.5625 136.214844 131.726562 C 135.890625 131.863281 135.5625 132.003906 135.257812 132.167969 C 134.09375 132.796875 133.019531 133.566406 132.015625 134.429688 C 131.574219 134.828125 131.128906 135.222656 130.734375 135.667969 C 130.335938 136.109375 129.941406 136.554688 129.589844 137.019531 C 128.773438 138.046875 127.980469 139.121094 127.257812 140.21875 C 126.882812 140.777344 126.535156 141.359375 126.183594 141.945312 C 126.019531 142.222656 125.855469 142.527344 125.671875 142.832031 C 125.4375 143.226562 125.273438 143.648438 125.15625 144.089844 C 125.015625 144.417969 124.875 144.742188 124.714844 145.070312 C 124.621094 145.28125 124.527344 145.515625 124.433594 145.722656 C 124.292969 146.050781 124.128906 146.355469 124.152344 146.703125 C 124.152344 146.820312 124.175781 146.9375 124.199219 147.03125 C 124.199219 147.265625 124.246094 147.472656 124.363281 147.660156 C 124.480469 147.847656 124.621094 148.011719 124.808594 148.105469 C 125.226562 148.335938 125.671875 148.3125 126.089844 148.105469 C 126.183594 148.058594 126.277344 148.011719 126.394531 147.964844 C 126.695312 147.800781 126.882812 147.519531 127.070312 147.242188 C 127.210938 147.03125 127.328125 146.84375 127.464844 146.632812 C 127.675781 146.308594 127.910156 145.980469 128.121094 145.652344 C 128.351562 145.421875 128.585938 145.164062 128.726562 144.882812 C 128.84375 144.675781 128.984375 144.464844 129.101562 144.230469 C 129.355469 143.789062 129.613281 143.367188 129.871094 142.925781 C 130.382812 142.085938 130.917969 141.246094 131.480469 140.425781 C 131.757812 140.03125 132.039062 139.65625 132.320312 139.261719 C 132.644531 138.839844 132.996094 138.421875 133.347656 138.023438 C 133.742188 137.582031 134.140625 137.113281 134.558594 136.671875 C 134.980469 136.226562 135.375 135.808594 135.820312 135.386719 C 136.285156 134.945312 136.800781 134.523438 137.289062 134.105469 C 137.570312 133.847656 137.894531 133.613281 138.175781 133.359375 C 138.316406 133.21875 138.457031 133.101562 138.621094 132.960938 C 138.828125 132.773438 139.0625 132.589844 139.179688 132.308594 C 139.203125 132.238281 139.25 132.191406 139.226562 132.167969 C 139.25 132.121094 139.296875 132.097656 139.34375 132.050781 C 139.414062 131.980469 139.484375 131.910156 139.550781 131.839844 C 139.644531 131.726562 139.691406 131.609375 139.738281 131.46875 C 139.878906 131.351562 139.738281 131.117188 139.550781 131.070312 Z M 139.550781 131.070312 " fill-opacity="1" fill-rule="nonzero"/><path fill="#000000" d="M 96.433594 216.488281 C 96.339844 216.164062 96.25 215.835938 96.0625 215.558594 C 95.96875 215.394531 95.875 215.230469 95.78125 215.089844 C 95.734375 214.855469 95.617188 214.578125 95.523438 214.4375 C 95.433594 214.273438 95.316406 214.109375 95.222656 213.96875 C 95.035156 213.667969 94.847656 213.363281 94.636719 213.058594 C 94.242188 212.429688 93.820312 211.847656 93.425781 211.21875 C 93.050781 210.609375 92.65625 210.003906 92.28125 209.375 C 91.910156 208.742188 91.558594 208.113281 91.230469 207.484375 C 90.882812 206.832031 90.554688 206.152344 90.253906 205.476562 C 89.925781 204.683594 89.621094 203.867188 89.390625 203.027344 C 89.25 202.585938 89.132812 202.117188 89.039062 201.675781 C 88.945312 201.230469 88.828125 200.765625 88.710938 200.320312 C 88.617188 199.855469 88.527344 199.363281 88.457031 198.898438 C 88.457031 198.851562 88.457031 198.828125 88.433594 198.78125 C 88.410156 198.640625 88.410156 198.476562 88.363281 198.335938 C 88.363281 198.292969 88.339844 198.269531 88.339844 198.222656 C 88.316406 197.871094 88.292969 197.519531 88.246094 197.195312 C 88.199219 196.773438 88.246094 196.355469 88.199219 195.910156 C 88.175781 195.679688 88.175781 195.46875 88.175781 195.234375 C 88.175781 195.140625 88.175781 195.023438 88.175781 194.929688 C 88.175781 194.882812 88.175781 194.839844 88.175781 194.769531 C 88.175781 194.652344 88.152344 194.558594 88.105469 194.464844 C 88.082031 194.371094 88.035156 194.277344 88.011719 194.183594 C 87.917969 193.882812 87.570312 193.789062 87.3125 193.996094 C 87.265625 194.042969 87.21875 194.089844 87.171875 194.113281 C 87.148438 194.136719 87.078125 194.183594 87.078125 194.207031 C 87.007812 194.253906 86.9375 194.324219 86.890625 194.394531 C 86.84375 194.488281 86.820312 194.558594 86.820312 194.558594 C 86.800781 194.605469 86.800781 194.628906 86.777344 194.675781 C 86.660156 194.953125 86.542969 195.234375 86.425781 195.539062 C 86.332031 195.792969 86.261719 196.027344 86.191406 196.285156 C 86.144531 196.566406 86.097656 196.820312 86.027344 197.078125 C 86.027344 197.101562 86.003906 197.101562 86.003906 197.125 C 85.980469 197.242188 85.980469 197.359375 85.957031 197.472656 C 85.980469 197.382812 85.980469 197.265625 86.003906 197.171875 C 85.957031 197.519531 85.914062 197.847656 85.890625 198.199219 C 85.84375 198.40625 85.796875 198.617188 85.796875 198.851562 C 85.796875 199.015625 85.773438 199.15625 85.773438 199.316406 C 85.75 199.644531 85.75 199.972656 85.773438 200.296875 C 85.773438 201.042969 85.84375 201.789062 85.957031 202.539062 C 86.167969 203.796875 86.496094 205.035156 86.890625 206.246094 C 87.730469 208.71875 88.898438 211.148438 90.414062 213.269531 C 90.90625 213.945312 91.371094 214.648438 91.933594 215.253906 C 92.164062 215.511719 92.375 215.765625 92.609375 216.023438 C 92.773438 216.210938 92.933594 216.375 93.121094 216.535156 C 93.261719 216.628906 93.378906 216.722656 93.519531 216.792969 C 93.660156 216.933594 93.796875 217.050781 93.9375 217.191406 C 94.101562 217.328125 94.265625 217.46875 94.429688 217.585938 C 94.546875 217.65625 94.660156 217.703125 94.777344 217.75 C 95.175781 217.9375 95.617188 217.960938 95.992188 217.65625 C 96.386719 217.375 96.550781 216.910156 96.433594 216.488281 Z M 96.433594 216.488281 " fill-opacity="1" fill-rule="nonzero"/><path fill="#000000" d="M 56.164062 234.574219 C 56.046875 234.550781 55.929688 234.527344 55.8125 234.503906 C 55.652344 234.480469 55.511719 234.503906 55.347656 234.527344 C 55.324219 234.527344 55.300781 234.527344 55.277344 234.527344 C 55.066406 234.527344 54.855469 234.527344 54.648438 234.597656 C 54.414062 234.664062 54.203125 234.757812 53.992188 234.851562 C 54.085938 234.804688 54.179688 234.78125 54.273438 234.734375 C 53.902344 234.875 53.480469 235.039062 53.152344 235.273438 C 52.78125 235.503906 52.453125 235.808594 52.128906 236.089844 C 51.519531 236.625 51.007812 237.253906 50.5625 237.933594 C 50.191406 238.492188 49.839844 239.074219 49.515625 239.660156 C 49.09375 240.453125 48.746094 241.246094 48.417969 242.085938 C 48.113281 242.832031 47.835938 243.578125 47.578125 244.347656 C 47.320312 245.09375 47.085938 245.863281 46.925781 246.660156 C 46.550781 248.386719 46.316406 250.136719 46.246094 251.90625 C 46.199219 252.816406 46.269531 253.703125 46.410156 254.589844 C 46.480469 255.175781 46.574219 255.78125 46.691406 256.363281 C 46.738281 256.597656 46.785156 256.808594 46.832031 257.042969 C 46.925781 257.414062 47.109375 257.742188 47.390625 258.019531 C 47.460938 258.089844 47.53125 258.160156 47.625 258.230469 C 47.996094 258.558594 48.417969 258.722656 48.929688 258.652344 C 49.375 258.582031 49.839844 258.347656 50.074219 257.90625 C 50.121094 257.835938 50.144531 257.742188 50.191406 257.671875 C 50.285156 257.507812 50.378906 257.320312 50.425781 257.132812 C 50.449219 257.019531 50.496094 256.738281 50.496094 256.621094 C 50.496094 256.574219 50.496094 256.527344 50.496094 256.480469 C 50.472656 256.246094 50.449219 256.015625 50.449219 255.78125 C 50.425781 255.292969 50.402344 254.800781 50.402344 254.3125 C 50.402344 253.820312 50.425781 253.332031 50.449219 252.863281 C 50.472656 252.375 50.472656 251.886719 50.515625 251.417969 C 50.539062 250.953125 50.585938 250.507812 50.65625 250.066406 C 50.84375 248.78125 51.101562 247.523438 51.425781 246.261719 C 51.753906 244.933594 52.175781 243.625 52.664062 242.34375 C 52.875 241.804688 53.0625 241.269531 53.269531 240.730469 C 53.597656 240.007812 53.96875 239.285156 54.34375 238.585938 C 54.742188 237.863281 55.207031 237.1875 55.652344 236.484375 C 55.582031 236.554688 55.535156 236.648438 55.464844 236.71875 C 55.582031 236.578125 55.675781 236.4375 55.765625 236.300781 C 55.835938 236.207031 55.929688 236.089844 55.976562 235.996094 C 56 235.949219 56.023438 235.902344 56.046875 235.855469 C 56.046875 235.832031 56.070312 235.808594 56.070312 235.785156 C 56.070312 235.785156 56.070312 235.761719 56.070312 235.761719 C 56.09375 235.738281 56.117188 235.714844 56.140625 235.691406 C 56.210938 235.621094 56.257812 235.550781 56.304688 235.460938 C 56.328125 235.414062 56.328125 235.390625 56.328125 235.390625 C 56.351562 235.320312 56.398438 235.25 56.421875 235.179688 C 56.492188 234.898438 56.421875 234.617188 56.164062 234.574219 Z M 56.164062 234.574219 " fill-opacity="1" fill-rule="nonzero"/><path fill="#000000" d="M 260.109375 245.28125 C 260.039062 244.769531 259.621094 244.417969 259.105469 244.394531 C 258.40625 244.371094 257.683594 244.277344 256.984375 244.347656 C 256.214844 244.441406 255.441406 244.511719 254.695312 244.628906 L 254.277344 244.675781 C 254.417969 244.628906 254.371094 244.628906 254.183594 244.652344 C 254.019531 244.652344 253.832031 244.675781 253.644531 244.699219 C 253.179688 244.722656 252.738281 244.769531 252.269531 244.839844 C 251.5 244.957031 250.730469 245.070312 249.960938 245.1875 C 246.996094 245.632812 244.035156 246.050781 241.070312 246.519531 C 238.105469 246.984375 235.144531 247.40625 232.179688 247.800781 C 230.710938 248.011719 229.265625 248.199219 227.792969 248.410156 C 227.699219 248.433594 227.585938 248.433594 227.5625 248.433594 C 227.375 248.453125 227.210938 248.476562 227.023438 248.5 C 226.675781 248.546875 226.300781 248.59375 225.953125 248.640625 C 225.179688 248.734375 224.410156 248.851562 223.640625 248.945312 C 217.691406 249.691406 211.742188 250.34375 205.769531 250.929688 C 202.78125 251.207031 199.796875 251.488281 196.808594 251.722656 C 195.316406 251.839844 193.824219 251.953125 192.328125 252.070312 C 191.605469 252.117188 190.882812 252.164062 190.183594 252.210938 C 189.273438 252.28125 188.691406 252.421875 187.851562 252.492188 C 186.171875 252.632812 184.488281 252.769531 182.832031 252.886719 C 181.992188 252.957031 181.152344 253.097656 180.3125 253.191406 C 179.472656 253.261719 178.632812 253.332031 177.792969 253.402344 C 176.953125 253.472656 176.113281 253.542969 175.273438 253.613281 C 174.433594 253.703125 173.617188 253.84375 172.777344 253.960938 C 171.097656 254.195312 169.417969 254.242188 167.714844 254.289062 C 167.292969 254.3125 167.292969 254.917969 167.714844 254.941406 C 169.207031 254.964844 170.722656 254.917969 172.195312 255.035156 C 172.941406 255.105469 173.6875 255.246094 174.433594 255.292969 C 175.179688 255.316406 175.925781 255.359375 176.675781 255.359375 C 179.660156 255.429688 182.648438 255.523438 185.65625 255.476562 C 186.402344 255.476562 187.148438 255.453125 187.898438 255.429688 C 188.644531 255.40625 189.390625 255.5 190.136719 255.453125 C 191.628906 255.382812 193.121094 255.316406 194.617188 255.246094 C 197.601562 255.082031 200.589844 254.894531 203.574219 254.707031 C 209.570312 254.289062 215.570312 253.75 221.542969 253.074219 C 227.609375 252.398438 233.675781 251.628906 239.71875 250.695312 C 242.679688 250.25 245.621094 249.761719 248.558594 249.203125 C 250.03125 248.921875 251.5 248.640625 252.96875 248.339844 C 253.691406 248.199219 254.394531 247.917969 255.117188 247.730469 C 255.839844 247.546875 256.5625 247.359375 257.285156 247.195312 C 258.007812 247.007812 258.6875 246.636719 259.363281 246.355469 C 259.851562 246.191406 260.179688 245.820312 260.109375 245.28125 Z M 260.109375 245.28125 " fill-opacity="1" fill-rule="nonzero"/><path fill="#000000" d="M 295.175781 232.097656 C 294.921875 231.679688 294.382812 231.421875 293.894531 231.585938 C 293.519531 231.703125 293.148438 231.796875 292.820312 231.984375 C 292.539062 232.121094 292.285156 232.261719 292.003906 232.402344 C 291.539062 232.636719 291.070312 232.871094 290.605469 233.101562 C 290.464844 233.148438 290.324219 233.195312 290.160156 233.242188 C 289.835938 233.359375 289.53125 233.523438 289.226562 233.664062 C 288.855469 233.847656 288.457031 234.035156 288.085938 234.222656 C 287.316406 234.597656 286.542969 234.992188 285.773438 235.34375 C 285.402344 235.503906 285.027344 235.667969 284.65625 235.832031 C 283.183594 236.4375 281.714844 236.953125 280.222656 237.464844 C 279.429688 237.722656 278.636719 237.980469 277.839844 238.210938 C 277.046875 238.445312 276.277344 238.65625 275.484375 238.867188 C 275.042969 238.980469 274.597656 239.121094 274.15625 239.238281 C 273.921875 239.308594 273.710938 239.378906 273.480469 239.449219 C 273.152344 239.542969 272.847656 239.613281 272.570312 239.777344 C 272.570312 239.777344 272.570312 239.777344 272.59375 239.753906 C 272.3125 239.9375 271.984375 240.078125 271.660156 240.21875 C 271.542969 240.289062 271.402344 240.429688 271.332031 240.546875 C 271.238281 240.730469 271.191406 240.917969 271.214844 241.128906 C 271.261719 241.457031 271.519531 241.828125 271.867188 241.898438 C 272.195312 241.96875 272.546875 241.992188 272.871094 242.109375 C 272.847656 242.109375 272.824219 242.085938 272.824219 242.085938 C 272.988281 242.15625 273.175781 242.179688 273.363281 242.179688 C 273.433594 242.179688 273.5 242.179688 273.570312 242.179688 C 273.734375 242.179688 273.898438 242.15625 274.085938 242.15625 C 274.386719 242.132812 274.691406 242.132812 274.996094 242.109375 C 275.742188 242.0625 276.488281 241.921875 277.234375 241.804688 C 277.863281 241.710938 278.472656 241.546875 279.078125 241.410156 C 279.707031 241.269531 280.316406 241.105469 280.945312 240.941406 C 282.15625 240.617188 283.347656 240.171875 284.515625 239.730469 C 285.820312 239.238281 287.105469 238.679688 288.363281 238.09375 C 288.996094 237.792969 289.648438 237.488281 290.253906 237.140625 C 290.558594 236.953125 290.859375 236.789062 291.1875 236.601562 C 291.5625 236.390625 291.863281 236.113281 292.191406 235.832031 C 292.632812 235.527344 293.054688 235.226562 293.472656 234.898438 C 293.800781 234.664062 294.105469 234.410156 294.429688 234.175781 C 294.664062 233.988281 294.851562 233.734375 295.039062 233.5 C 295.199219 233.289062 295.316406 233.101562 295.339844 232.847656 C 295.363281 232.566406 295.316406 232.308594 295.175781 232.097656 Z M 295.175781 232.097656 " fill-opacity="1" fill-rule="nonzero"/><path fill="#000000" d="M 267.390625 174.75 C 266.199219 175.097656 264.984375 175.425781 263.820312 175.800781 C 263.210938 175.984375 262.652344 176.242188 262.046875 176.453125 C 261.460938 176.640625 260.855469 176.824219 260.25 177.011719 C 259.035156 177.339844 257.847656 177.734375 256.65625 178.15625 C 255.464844 178.550781 254.277344 178.949219 253.109375 179.367188 C 248.351562 181.046875 243.449219 182.378906 238.503906 183.382812 C 235.820312 183.917969 233.136719 184.433594 230.429688 184.804688 C 229.148438 184.96875 227.839844 185.085938 226.558594 185.273438 C 226.722656 185.25 226.882812 185.226562 227.046875 185.203125 C 224.808594 185.503906 222.566406 185.714844 220.328125 185.878906 C 220.046875 185.902344 219.769531 185.902344 219.511719 185.925781 C 219.300781 185.949219 219.089844 185.972656 218.882812 185.996094 C 218.789062 186.019531 218.273438 186.089844 218.648438 186.019531 C 218.113281 186.089844 217.550781 186.160156 217.015625 186.183594 C 215.894531 186.226562 214.75 186.273438 213.632812 186.320312 C 212.371094 186.367188 211.136719 186.695312 209.898438 186.882812 C 209.757812 186.90625 209.78125 187.089844 209.898438 187.136719 C 210.808594 187.441406 211.71875 187.769531 212.652344 187.976562 C 213.65625 188.210938 214.683594 188.28125 215.683594 188.398438 C 216.175781 188.445312 216.6875 188.492188 217.179688 188.515625 C 217.273438 188.515625 217.386719 188.539062 217.480469 188.539062 C 217.480469 188.539062 217.503906 188.539062 217.503906 188.539062 C 217.503906 188.539062 217.855469 188.585938 217.832031 188.5625 C 218.089844 188.585938 218.34375 188.632812 218.601562 188.65625 C 219.582031 188.773438 220.539062 188.792969 221.542969 188.816406 C 223.476562 188.839844 225.460938 188.886719 227.398438 188.75 C 229.335938 188.609375 231.292969 188.421875 233.207031 188.1875 C 235.285156 187.929688 237.359375 187.628906 239.414062 187.253906 C 241.328125 186.90625 243.242188 186.4375 245.128906 185.972656 C 248.910156 185.015625 252.691406 183.871094 256.28125 182.378906 C 257.308594 181.957031 258.3125 181.515625 259.292969 181.023438 C 259.710938 180.816406 260.132812 180.605469 260.574219 180.371094 C 261.019531 180.140625 261.414062 179.859375 261.835938 179.601562 C 262.675781 179.089844 263.515625 178.621094 264.355469 178.132812 C 265.21875 177.617188 266.011719 176.988281 266.804688 176.359375 C 267.179688 176.078125 267.527344 175.777344 267.878906 175.496094 C 268.230469 175.214844 267.832031 174.609375 267.390625 174.75 Z M 267.390625 174.75 " fill-opacity="1" fill-rule="nonzero"/><path fill="#000000" d="M 226.535156 121.132812 C 226.300781 121.015625 226.089844 120.921875 225.835938 120.921875 C 225.742188 120.921875 225.625 120.921875 225.53125 120.945312 C 225.203125 120.96875 224.855469 120.96875 224.550781 121.0625 C 224.132812 121.179688 223.710938 121.320312 223.316406 121.480469 C 222.894531 121.644531 222.476562 121.808594 222.054688 121.972656 C 221.496094 122.183594 220.957031 122.414062 220.421875 122.671875 C 220 122.859375 219.582031 123.046875 219.160156 123.207031 C 217.972656 123.699219 216.78125 124.1875 215.570312 124.65625 C 214.914062 124.910156 214.261719 125.144531 213.609375 125.378906 C 212.957031 125.613281 212.277344 125.796875 211.601562 126.054688 C 210.738281 126.382812 209.875 126.636719 209.035156 127.011719 C 209.175781 126.964844 209.316406 126.894531 209.433594 126.847656 C 209.105469 126.988281 208.777344 127.128906 208.429688 127.246094 C 208.265625 127.316406 208.101562 127.363281 207.960938 127.429688 C 207.753906 127.5 207.542969 127.617188 207.332031 127.710938 C 207.074219 127.804688 206.820312 127.921875 206.5625 128.015625 C 206.328125 128.109375 206.074219 128.179688 205.863281 128.292969 C 205.722656 128.363281 205.582031 128.433594 205.441406 128.503906 C 205.164062 128.644531 204.859375 128.761719 204.601562 128.949219 C 204.4375 129.042969 204.300781 129.15625 204.160156 129.273438 C 204.042969 129.390625 203.972656 129.4375 203.855469 129.53125 C 203.644531 129.671875 203.644531 130.042969 203.925781 130.089844 C 204.019531 130.113281 204.113281 130.136719 204.207031 130.160156 C 204.253906 130.183594 204.300781 130.207031 204.347656 130.207031 C 204.367188 130.230469 204.53125 130.277344 204.367188 130.207031 C 204.4375 130.253906 204.53125 130.277344 204.601562 130.277344 C 204.71875 130.300781 204.71875 130.300781 204.601562 130.277344 C 204.601562 130.277344 204.71875 130.300781 204.742188 130.300781 C 204.90625 130.324219 205.046875 130.371094 205.210938 130.371094 C 205.628906 130.394531 206.050781 130.417969 206.46875 130.441406 C 206.421875 130.441406 206.375 130.417969 206.304688 130.417969 C 206.421875 130.441406 206.539062 130.441406 206.65625 130.441406 C 206.75 130.441406 206.820312 130.417969 206.914062 130.417969 C 207.074219 130.394531 207.238281 130.394531 207.402344 130.371094 C 207.84375 130.324219 208.3125 130.324219 208.753906 130.253906 C 208.617188 130.277344 208.5 130.300781 208.359375 130.300781 C 209.011719 130.230469 209.664062 130.136719 210.320312 130.042969 C 210.179688 130.066406 210.015625 130.089844 209.875 130.113281 C 210.574219 130.019531 211.273438 129.859375 211.976562 129.71875 C 212.535156 129.601562 213.09375 129.4375 213.65625 129.273438 C 214.75 128.949219 215.847656 128.574219 216.921875 128.203125 C 218.160156 127.757812 219.347656 127.292969 220.539062 126.777344 C 221.074219 126.546875 221.589844 126.3125 222.125 126.078125 C 222.382812 125.960938 222.660156 125.84375 222.917969 125.703125 C 223.175781 125.589844 223.40625 125.425781 223.664062 125.285156 C 224.226562 124.957031 224.761719 124.632812 225.296875 124.257812 C 225.4375 124.164062 225.554688 124.070312 225.695312 123.976562 C 225.859375 123.863281 226.042969 123.746094 226.160156 123.582031 C 226.207031 123.511719 226.253906 123.464844 226.300781 123.394531 C 226.394531 123.277344 226.488281 123.160156 226.582031 123.046875 C 226.746094 122.859375 226.90625 122.671875 226.953125 122.414062 C 226.976562 122.273438 227 122.136719 227 121.996094 C 227.070312 121.667969 226.816406 121.273438 226.535156 121.132812 Z M 226.535156 121.132812 " fill-opacity="1" fill-rule="nonzero"/></svg>