<svg xmlns="http://www.w3.org/2000/svg" xmlns:xlink="http://www.w3.org/1999/xlink" width="500" zoomAndPan="magnify" viewBox="0 0 375 374.999991" height="500" preserveAspectRatio="xMidYMid meet" version="1.0"><defs><clipPath id="3f55db433b"><path d="M 58 61.5 L 318 61.5 L 318 313.5 L 58 313.5 Z M 58 61.5 " clip-rule="nonzero"/></clipPath></defs><g clip-path="url(#3f55db433b)"><path fill="#000000" d="M 317.617188 249.523438 C 317.367188 240.902344 313.550781 232.535156 307.148438 226.570312 C 302.792969 222.507812 297.699219 220.054688 292.488281 219.394531 C 292.664062 219.089844 292.851562 218.792969 293.019531 218.480469 C 297.742188 209.777344 298.851562 198.796875 295.917969 189.824219 C 292.496094 179.371094 284.167969 176.535156 275.609375 174.902344 C 275.65625 172.269531 275.660156 169.644531 275.617188 167.019531 C 276.8125 167.152344 277.882812 167.285156 278.78125 167.414062 C 280.085938 167.601562 281.304688 166.695312 281.492188 165.386719 C 281.679688 164.082031 280.769531 162.871094 279.464844 162.679688 C 277.457031 162.390625 271.949219 161.828125 264.746094 161.367188 C 268.617188 153.757812 269.34375 144.238281 266.476562 136.074219 C 263.171875 126.664062 255.191406 119.609375 246.332031 118.078125 C 249.414062 112.824219 251.296875 106.503906 251.359375 100.457031 C 251.460938 90.96875 247.171875 81.691406 240.4375 76.816406 C 235.238281 73.0625 228.84375 71.074219 221.9375 71.074219 C 214.523438 71.074219 207.089844 73.367188 201 77.527344 C 198.703125 79.097656 196.464844 80.800781 194.296875 82.449219 C 192.746094 83.628906 191.191406 84.808594 189.613281 85.945312 C 184.980469 89.28125 179.9375 92.480469 174.488281 93.289062 C 173.679688 93.40625 172.832031 93.46875 171.960938 93.46875 C 167.082031 93.46875 162.804688 91.707031 160.519531 88.753906 C 158.394531 86.015625 158.132812 81.78125 159.84375 77.96875 C 160.382812 76.769531 161.066406 75.664062 161.875 74.683594 C 162.511719 73.90625 163.222656 73.21875 163.984375 72.644531 C 165.160156 71.75 166.503906 71.046875 167.664062 70.476562 C 167.757812 70.429688 167.988281 70.308594 168.300781 70.144531 C 168.820312 69.863281 170.308594 69.074219 170.921875 68.808594 C 171.339844 68.742188 171.746094 68.558594 172.09375 68.261719 C 173.09375 67.398438 173.207031 65.890625 172.34375 64.890625 C 172.34375 64.886719 172.339844 64.886719 172.339844 64.882812 C 170.363281 62.609375 166.433594 61.5 160.328125 61.5 C 155.226562 61.5 149.96875 62.308594 147.609375 63.070312 C 139.878906 65.5625 132.511719 70.996094 126.867188 78.367188 C 119.1875 88.394531 116.992188 104.757812 121.273438 120.058594 C 126.65625 139.300781 143.894531 151.734375 165.1875 151.734375 C 178.777344 151.734375 191.40625 146.429688 199.832031 137.183594 C 201.164062 135.71875 202.414062 134.160156 203.621094 132.652344 C 205.648438 130.121094 207.566406 127.730469 209.8125 125.804688 C 213.417969 122.714844 217.65625 121.585938 220.664062 123.097656 C 221.660156 123.601562 222.636719 124.445312 223.664062 125.339844 C 225.304688 126.765625 227.164062 128.375 229.625 128.945312 C 232.875 129.695312 236.84375 128.449219 240.054688 125.722656 C 241.246094 124.714844 242.363281 123.558594 243.402344 122.292969 C 243.695312 122.46875 244.023438 122.589844 244.382812 122.625 C 252.015625 123.40625 259.078125 129.449219 261.964844 137.65625 C 264.609375 145.191406 263.574219 154.425781 259.429688 161.066406 C 239.976562 160.105469 212.757812 160.328125 204.554688 167.433594 C 202.246094 169.433594 201.761719 171.617188 201.761719 173.09375 C 201.761719 174.414062 202.832031 175.484375 204.152344 175.484375 C 205.472656 175.484375 206.546875 174.414062 206.546875 173.09375 C 206.546875 172.644531 206.664062 171.949219 207.664062 171.070312 C 207.660156 171.136719 207.65625 171.195312 207.652344 171.261719 C 207.457031 174.847656 207.230469 179.054688 207.136719 183.144531 C 203.457031 180.585938 199.398438 179.078125 195.265625 178.769531 C 190.132812 178.390625 185.066406 179.910156 181.015625 183.058594 C 180.6875 183.3125 180.320312 183.617188 179.957031 183.964844 C 179.875 179.628906 179.628906 175.101562 179.417969 171.28125 C 179.414062 171.207031 179.410156 171.144531 179.40625 171.070312 C 180.410156 171.945312 180.527344 172.644531 180.527344 173.09375 C 180.527344 174.410156 181.597656 175.484375 182.917969 175.484375 C 184.238281 175.484375 185.308594 174.414062 185.308594 173.09375 C 185.308594 171.613281 184.824219 169.429688 182.515625 167.433594 C 173.582031 159.6875 142.082031 160.121094 122.632812 161.347656 C 122.273438 158.417969 122.6875 155.351562 123.824219 152.734375 C 125.257812 149.441406 127.789062 146.851562 130.777344 145.628906 C 131.996094 145.128906 132.585938 143.734375 132.082031 142.511719 C 131.585938 141.289062 130.191406 140.703125 128.964844 141.203125 C 124.835938 142.894531 121.363281 146.402344 119.4375 150.828125 C 117.976562 154.1875 117.445312 157.972656 117.859375 161.679688 C 112.882812 162.0625 109.175781 162.457031 107.609375 162.679688 C 106.300781 162.867188 105.394531 164.082031 105.582031 165.386719 C 105.769531 166.695312 106.980469 167.605469 108.289062 167.414062 C 109.191406 167.285156 110.261719 167.152344 111.457031 167.019531 C 111.445312 167.664062 111.445312 168.304688 111.4375 168.949219 C 108.347656 170.078125 105.28125 171.519531 102.304688 173.277344 C 96.417969 176.765625 91.75 180.96875 88.425781 185.777344 C 84.402344 191.597656 82.3125 198.410156 82.542969 204.960938 C 82.636719 207.597656 83.105469 210.082031 83.832031 212.425781 C 71.242188 216.410156 59.945312 231.5 58.921875 246.464844 C 56.472656 282.1875 87.617188 301.175781 117.578125 307.03125 C 136.289062 310.691406 156.617188 312.722656 179.730469 313.242188 C 184.769531 313.355469 190.039062 313.4375 195.472656 313.4375 C 210.476562 313.4375 226.691406 312.800781 242.488281 310.414062 C 292.574219 302.84375 318.554688 281.789062 317.617188 249.523438 Z M 236.960938 122.074219 C 234.949219 123.78125 232.425781 124.683594 230.699219 124.285156 C 229.394531 123.984375 228.136719 122.886719 226.796875 121.730469 C 225.59375 120.679688 224.34375 119.597656 222.8125 118.828125 C 218.0625 116.4375 211.828125 117.78125 206.699219 122.171875 C 204.113281 124.390625 201.964844 127.070312 199.886719 129.664062 C 198.726562 131.113281 197.527344 132.613281 196.292969 133.960938 C 188.773438 142.214844 177.433594 146.949219 165.1875 146.949219 C 150.691406 146.949219 131.699219 139.570312 125.878906 118.769531 C 122.691406 107.378906 122.933594 91.367188 130.664062 81.273438 C 135.722656 74.667969 142.261719 69.820312 149.078125 67.621094 C 150.75 67.082031 155.484375 66.285156 160.328125 66.285156 C 162.109375 66.285156 163.585938 66.394531 164.785156 66.574219 C 163.605469 67.175781 162.316406 67.90625 161.089844 68.835938 C 160.035156 69.636719 159.058594 70.582031 158.179688 71.644531 C 157.101562 72.953125 156.195312 74.421875 155.480469 76.011719 C 153.050781 81.414062 153.542969 87.570312 156.734375 91.6875 C 159.921875 95.800781 165.613281 98.253906 171.957031 98.253906 C 171.960938 98.253906 171.960938 98.253906 171.960938 98.253906 C 173.0625 98.253906 174.148438 98.179688 175.1875 98.023438 C 181.648438 97.066406 187.28125 93.519531 192.40625 89.828125 C 194.019531 88.667969 195.605469 87.464844 197.1875 86.257812 C 199.308594 84.648438 201.5 82.980469 203.699219 81.480469 C 209 77.855469 215.476562 75.859375 221.9375 75.859375 C 227.832031 75.859375 233.257812 77.53125 237.632812 80.695312 C 243.152344 84.6875 246.660156 92.425781 246.578125 100.410156 C 246.492188 108.441406 242.539062 117.347656 236.960938 122.074219 Z M 260.621094 165.875 C 260.648438 165.875 260.671875 165.886719 260.695312 165.886719 C 260.710938 165.886719 260.726562 165.878906 260.742188 165.878906 C 264.429688 166.070312 267.84375 166.304688 270.828125 166.5625 C 271 175.578125 270.648438 184.675781 269.753906 193.632812 C 269.617188 194.984375 269.453125 196.253906 268.929688 196.953125 C 268.40625 197.648438 267.371094 197.933594 265.757812 198.191406 C 249.539062 200.789062 233.035156 201.445312 216.703125 200.144531 C 215.554688 200.050781 214.628906 199.945312 214.050781 199.511719 C 212.890625 198.636719 212.488281 195.980469 212.316406 194.84375 C 211.460938 189.207031 212.042969 178.566406 212.429688 171.527344 C 212.488281 170.464844 212.539062 169.492188 212.585938 168.578125 C 223.113281 165.128906 244.347656 165.042969 260.621094 165.875 Z M 174.484375 168.578125 C 174.53125 169.496094 174.585938 170.472656 174.640625 171.542969 C 175.027344 178.578125 175.605469 189.210938 174.753906 194.84375 C 174.582031 195.980469 174.179688 198.636719 173.015625 199.511719 C 172.441406 199.945312 171.515625 200.050781 170.367188 200.144531 C 154.039062 201.441406 137.53125 200.789062 121.3125 198.191406 C 119.695312 197.933594 118.660156 197.648438 118.140625 196.953125 C 117.617188 196.253906 117.453125 194.984375 117.316406 193.632812 C 116.417969 184.671875 116.070312 175.574219 116.242188 166.5625 C 132.425781 165.179688 161.546875 164.339844 174.484375 168.578125 Z M 241.773438 305.683594 C 220.617188 308.882812 198.59375 308.882812 179.832031 308.457031 C 157 307.945312 136.933594 305.941406 118.496094 302.339844 C 90.535156 296.871094 61.453125 279.410156 63.691406 246.792969 C 64.601562 233.460938 74.605469 220.054688 85.605469 216.875 C 88.796875 223.324219 93.988281 228.269531 98.914062 231.242188 C 107.164062 236.214844 116.566406 237.820312 126.28125 239.148438 C 126.390625 239.164062 126.5 239.171875 126.609375 239.171875 C 127.785156 239.171875 128.8125 238.304688 128.972656 237.105469 C 129.15625 235.796875 128.238281 234.589844 126.929688 234.410156 C 117.378906 233.105469 108.863281 231.65625 101.386719 227.144531 C 96.898438 224.441406 92.144531 219.867188 89.46875 213.902344 C 89.464844 213.816406 89.464844 213.738281 89.453125 213.652344 C 89.375 213.214844 89.175781 212.832031 88.90625 212.519531 C 88 210.136719 87.417969 207.554688 87.324219 204.796875 C 87.128906 199.269531 88.917969 193.480469 92.359375 188.5 C 95.285156 184.261719 99.453125 180.527344 104.738281 177.398438 C 106.933594 176.097656 109.179688 174.996094 111.441406 174.070312 C 111.535156 180.765625 111.894531 187.476562 112.558594 194.109375 C 112.753906 196.078125 113.050781 198.136719 114.3125 199.820312 C 116.09375 202.203125 118.996094 202.664062 120.558594 202.914062 C 131.628906 204.6875 142.828125 205.578125 154.023438 205.578125 C 159.605469 205.578125 165.1875 205.355469 170.746094 204.914062 C 172.105469 204.804688 174.160156 204.640625 175.894531 203.332031 C 178.292969 201.527344 179.054688 198.390625 179.484375 195.5625 C 179.792969 193.527344 179.929688 191.007812 179.96875 188.269531 C 180.25 187.121094 181.046875 186.066406 182.480469 184.949219 C 186.066406 182.167969 190.550781 180.828125 195.085938 181.160156 C 199.285156 181.472656 203.421875 183.183594 207.09375 186.097656 C 207.078125 189.667969 207.199219 193 207.585938 195.5625 C 208.015625 198.394531 208.777344 201.527344 211.175781 203.335938 C 212.910156 204.640625 214.964844 204.804688 216.324219 204.914062 C 221.886719 205.355469 227.464844 205.578125 233.046875 205.578125 C 244.242188 205.578125 255.441406 204.6875 266.511719 202.914062 C 268.070312 202.664062 270.976562 202.199219 272.757812 199.820312 C 274.015625 198.136719 274.316406 196.074219 274.511719 194.109375 C 274.988281 189.355469 275.316406 184.558594 275.5 179.757812 C 282.769531 181.207031 288.820312 183.519531 291.371094 191.3125 C 293.910156 199.078125 292.929688 208.613281 288.816406 216.203125 C 284.546875 224.070312 276.910156 229.328125 268.886719 229.914062 C 267.566406 230.011719 266.578125 231.15625 266.675781 232.476562 C 266.769531 233.734375 267.816406 234.691406 269.058594 234.691406 C 269.117188 234.691406 269.175781 234.6875 269.234375 234.683594 C 276.804688 234.128906 284.046875 230.164062 289.25 223.988281 C 294.3125 223.855469 299.519531 226 303.886719 230.066406 C 309.277344 235.09375 312.625 242.417969 312.835938 249.660156 C 313.917969 286.925781 274.789062 300.695312 241.773438 305.683594 Z M 241.457031 226.765625 C 239.226562 246.527344 225.246094 261.976562 205.835938 266.125 C 202.230469 266.894531 198.652344 267.273438 195.136719 267.273438 C 179.980469 267.273438 165.957031 260.222656 155.574219 247.078125 C 154.757812 246.042969 154.933594 244.539062 155.96875 243.71875 C 157.003906 242.902344 158.507812 243.078125 159.328125 244.113281 C 171.121094 259.042969 187.28125 265.199219 204.835938 261.445312 C 222.203125 257.734375 234.710938 243.910156 236.703125 226.226562 C 236.851562 224.914062 238.046875 223.964844 239.347656 224.117188 C 240.660156 224.265625 241.605469 225.453125 241.457031 226.765625 Z M 137.652344 114.566406 C 138.167969 114.976562 138.253906 115.730469 137.839844 116.246094 C 137.605469 116.542969 137.257812 116.695312 136.90625 116.695312 C 136.644531 116.695312 136.378906 116.609375 136.160156 116.433594 C 131.027344 112.339844 129.035156 103.796875 131.722656 97.378906 C 131.976562 96.769531 132.671875 96.484375 133.285156 96.738281 C 133.894531 96.996094 134.183594 97.695312 133.925781 98.304688 C 131.628906 103.800781 133.296875 111.09375 137.652344 114.566406 Z M 238.578125 109.605469 C 238.179688 111.769531 236.761719 113.667969 234.796875 114.683594 C 233.863281 115.164062 232.871094 115.40625 231.902344 115.40625 C 231.09375 115.40625 230.304688 115.238281 229.574219 114.898438 C 228.976562 114.621094 228.71875 113.910156 228.996094 113.3125 C 229.273438 112.710938 229.980469 112.453125 230.585938 112.730469 C 231.515625 113.164062 232.648438 113.097656 233.699219 112.558594 C 235.015625 111.878906 235.960938 110.613281 236.226562 109.171875 C 236.34375 108.519531 236.96875 108.09375 237.617188 108.210938 C 238.269531 108.332031 238.699219 108.957031 238.578125 109.605469 Z M 178.835938 102.261719 C 179.339844 102.691406 179.398438 103.445312 178.972656 103.949219 C 177.265625 105.949219 174.792969 106.996094 172.328125 106.996094 C 170.511719 106.996094 168.703125 106.425781 167.207031 105.253906 C 166.683594 104.847656 166.59375 104.097656 167.003906 103.578125 C 167.410156 103.054688 168.160156 102.964844 168.679688 103.375 C 171.203125 105.351562 175.003906 104.914062 177.152344 102.394531 C 177.582031 101.890625 178.335938 101.835938 178.835938 102.261719 Z M 255.992188 142.476562 C 256.617188 140.683594 255.941406 138.347656 254.515625 137.375 C 253.972656 137 253.832031 136.257812 254.203125 135.710938 C 254.574219 135.167969 255.320312 135.027344 255.863281 135.398438 C 258.1875 136.980469 259.234375 140.4375 258.25 143.261719 C 257.394531 145.726562 255.054688 147.394531 252.699219 147.394531 C 252.308594 147.394531 251.917969 147.347656 251.535156 147.253906 C 250.894531 147.09375 250.5 146.445312 250.660156 145.804688 C 250.820312 145.164062 251.476562 144.769531 252.109375 144.933594 C 253.625 145.308594 255.398438 144.183594 255.992188 142.476562 Z M 218.371094 181.019531 C 217.890625 180.570312 217.863281 179.8125 218.3125 179.328125 C 220.597656 176.871094 223.179688 174.796875 225.988281 173.167969 C 226.5625 172.835938 227.292969 173.03125 227.625 173.601562 C 227.953125 174.171875 227.761719 174.902344 227.1875 175.234375 C 224.585938 176.746094 222.1875 178.671875 220.0625 180.957031 C 219.828125 181.210938 219.507812 181.339844 219.1875 181.339844 C 218.894531 181.339844 218.601562 181.234375 218.371094 181.019531 Z M 220.777344 184.195312 L 230.597656 178.445312 C 231.164062 178.109375 231.898438 178.300781 232.230469 178.871094 C 232.566406 179.441406 232.375 180.175781 231.804688 180.507812 L 221.984375 186.257812 C 221.796875 186.371094 221.585938 186.421875 221.382812 186.421875 C 220.96875 186.421875 220.570312 186.210938 220.347656 185.832031 C 220.015625 185.261719 220.207031 184.53125 220.777344 184.195312 Z M 121.695312 180.710938 C 121.273438 180.203125 121.34375 179.449219 121.851562 179.027344 C 124.625 176.71875 127.628906 174.742188 130.773438 173.152344 C 131.363281 172.851562 132.082031 173.089844 132.382812 173.679688 C 132.679688 174.269531 132.441406 174.988281 131.851562 175.285156 C 128.867188 176.796875 126.019531 178.671875 123.378906 180.867188 C 123.15625 181.050781 122.886719 181.140625 122.617188 181.140625 C 122.273438 181.144531 121.933594 180.996094 121.695312 180.710938 Z M 125.484375 184.332031 L 138.15625 175.914062 C 138.707031 175.546875 139.449219 175.695312 139.8125 176.246094 C 140.179688 176.796875 140.03125 177.539062 139.480469 177.90625 L 126.808594 186.324219 C 126.605469 186.460938 126.375 186.523438 126.148438 186.523438 C 125.757812 186.523438 125.378906 186.335938 125.152344 185.988281 C 124.785156 185.441406 124.933594 184.699219 125.484375 184.332031 Z M 281.464844 212.351562 C 280.96875 211.917969 280.917969 211.160156 281.351562 210.664062 C 285.542969 205.886719 286.1875 200.070312 282.992188 195.84375 C 282.59375 195.320312 282.699219 194.570312 283.226562 194.171875 C 283.75 193.769531 284.503906 193.878906 284.902344 194.402344 C 288.746094 199.496094 288.046875 206.664062 283.152344 212.242188 C 282.914062 212.511719 282.585938 212.648438 282.25 212.648438 C 281.972656 212.648438 281.691406 212.550781 281.464844 212.351562 Z M 111.25 219.304688 C 111.25 219.964844 110.71875 220.5 110.054688 220.5 C 103.5625 220.5 99.804688 214.753906 98.8125 212.992188 C 97.476562 210.628906 96.441406 207.449219 97.550781 205.605469 C 97.894531 205.039062 98.628906 204.855469 99.191406 205.195312 C 99.757812 205.535156 99.941406 206.269531 99.601562 206.835938 C 99.328125 207.292969 99.425781 209.222656 100.894531 211.816406 C 102.613281 214.859375 105.925781 218.109375 110.058594 218.109375 C 110.714844 218.109375 111.25 218.640625 111.25 219.304688 Z M 78.230469 241.757812 C 78.597656 242.304688 78.449219 243.046875 77.898438 243.414062 C 75.039062 245.316406 73.445312 247.925781 73.15625 251.160156 C 72.804688 255.15625 74.574219 259.203125 76.425781 260.980469 C 76.902344 261.433594 76.917969 262.191406 76.460938 262.667969 C 76.226562 262.914062 75.910156 263.035156 75.597656 263.035156 C 75.296875 263.035156 75 262.925781 74.769531 262.703125 C 72.460938 260.488281 70.347656 255.738281 70.773438 250.949219 C 71.125 247.007812 73.128906 243.714844 76.570312 241.425781 C 77.121094 241.058594 77.863281 241.207031 78.230469 241.757812 Z M 92.867188 271.824219 C 92.773438 272.410156 92.265625 272.828125 91.691406 272.828125 C 91.625 272.828125 91.5625 272.824219 91.496094 272.8125 C 83.128906 271.449219 80.160156 263.574219 80.160156 257.242188 C 80.160156 256.582031 80.695312 256.046875 81.355469 256.046875 C 82.015625 256.046875 82.550781 256.582031 82.550781 257.242188 C 82.550781 262.636719 84.992188 269.332031 91.878906 270.453125 C 92.53125 270.558594 92.976562 271.175781 92.867188 271.824219 Z M 301.828125 241.253906 C 305.785156 246.628906 304.726562 255.496094 299.648438 259.503906 C 299.425781 259.675781 299.167969 259.761719 298.90625 259.761719 C 298.554688 259.761719 298.203125 259.605469 297.96875 259.304688 C 297.558594 258.785156 297.648438 258.035156 298.167969 257.625 C 302.160156 254.476562 303.035156 246.929688 299.902344 242.671875 C 299.511719 242.140625 299.625 241.390625 300.15625 241 C 300.6875 240.609375 301.4375 240.722656 301.828125 241.253906 Z M 301.828125 241.253906 " fill-opacity="1" fill-rule="nonzero"/></g></svg>